<svg width="36" height="36" viewBox="0 0 36 36" fill="none" xmlns="http://www.w3.org/2000/svg">
<path d="M35.2969 16.5938H0.703125V10.5117C0.703125 8.74484 2.13546 7.3125 3.90234 7.3125H32.0977C33.8645 7.3125 35.2969 8.74484 35.2969 10.5117V16.5938Z" fill="#FAE196"/>
<path d="M30.6562 35.2967H5.34375C3.79048 35.2967 2.53125 34.0375 2.53125 32.4842V16.6025H33.4688V32.4842C33.4688 34.0375 32.2095 35.2967 30.6562 35.2967Z" fill="#F5C86E"/>
<path d="M22.6406 7.3125H13.3594V16.5938H22.6406V7.3125Z" fill="#FF5A5A"/>
<path d="M32.0977 6.60938H26.9014C28.7162 5.28068 29.8972 3.13516 29.8972 0.718734C29.8972 0.330469 29.5824 0.0156094 29.1941 0.0156094C28.8058 0.0156094 28.491 0.330469 28.491 0.718734C28.491 3.25146 26.8841 5.41568 24.6365 6.24628C25.0688 5.60672 25.3214 4.83623 25.3214 4.00788C25.3214 1.79796 23.5235 7.03125e-05 21.3136 7.03125e-05C19.9406 0 18.727 0.694336 18.0044 1.74994C17.2819 0.694336 16.0683 0 14.6953 0C12.4854 0 10.6875 1.79789 10.6875 4.00781C10.6875 4.83834 10.9415 5.61052 11.3758 6.25113C9.12164 5.42391 7.50902 3.2561 7.50902 0.718734C7.50902 0.330469 7.19416 0.0156094 6.8059 0.0156094C6.41763 0.0156094 6.10277 0.330469 6.10277 0.718734C6.10277 3.13523 7.28381 5.28068 9.09865 6.60938H3.90234C1.75057 6.60938 0 8.35995 0 10.5117V16.5938C0 16.982 0.314859 17.2969 0.703125 17.2969H1.82812V32.4844C1.82812 34.4229 3.40523 36 5.34375 36H30.6562C32.5948 36 34.1719 34.4229 34.1719 32.4844V22.2188C34.1719 21.8305 33.857 21.5156 33.4688 21.5156C33.0805 21.5156 32.7656 21.8305 32.7656 22.2188V32.4844C32.7656 33.6475 31.8194 34.5938 30.6562 34.5938H5.34375C4.18064 34.5938 3.23438 33.6475 3.23438 32.4844V17.3058L35.2969 17.2969C35.6851 17.2969 36 16.982 36 16.5938V10.5117C36 8.35995 34.2494 6.60938 32.0977 6.60938ZM14.0625 15.8906V8.01562H21.9375V15.8906H14.0625ZM18.7121 4.00781C18.7121 2.5733 19.8791 1.40625 21.3136 1.40625C22.7481 1.40625 23.9152 2.5733 23.9152 4.00781C23.9152 5.44233 22.7481 6.60938 21.3136 6.60938H18.7121V4.00781ZM14.6953 1.40625C16.1298 1.40625 17.2969 2.5733 17.2969 4.00781V6.60938H14.6953C13.2608 6.60938 12.0938 5.44233 12.0938 4.00781C12.0938 2.5733 13.2608 1.40625 14.6953 1.40625ZM1.40625 10.5117C1.40625 9.13535 2.52598 8.01562 3.90234 8.01562H12.6562V15.8906H1.40625V10.5117ZM34.5938 15.8906H23.3438V8.01562H32.0977C33.474 8.01562 34.5938 9.13535 34.5938 10.5117V15.8906Z" fill="black"/>
<path d="M33.4688 18.4258C33.2838 18.4258 33.1024 18.5003 32.9716 18.6311C32.8409 18.7626 32.7656 18.944 32.7656 19.1289C32.7656 19.3138 32.8408 19.4945 32.9716 19.626C33.1024 19.7567 33.2838 19.832 33.4688 19.832C33.6537 19.832 33.8351 19.7568 33.9658 19.626C34.0966 19.4945 34.1719 19.3138 34.1719 19.1289C34.1719 18.944 34.0966 18.7626 33.9658 18.6311C33.8351 18.5002 33.6537 18.4258 33.4688 18.4258Z" fill="black"/>
</svg>
