<svg width="44" height="44" viewBox="0 0 44 44" fill="none" xmlns="http://www.w3.org/2000/svg">
<path d="M42.958 18.9531L21.9043 43.0418L0.855736 18.9531H42.958Z" fill="white"/>
<path d="M42.958 18.9531L21.9043 43.0418L0.855736 18.9531H42.958Z" fill="#78D2FA"/>
<path d="M35.9086 8.23242L42.957 18.9531H0.855782L7.87194 8.23242H35.9086Z" fill="#78D2FA"/>
<path d="M28.9204 18.9531L21.9042 8.23242L14.888 18.9531H28.9204Z" fill="white"/>
<path d="M14.8877 18.9531L7.87145 8.23242L0.855289 18.9531H14.8877Z" fill="#C8F5FF"/>
<path d="M42.9243 18.9531L35.9082 8.23242L28.892 18.9531H42.9243Z" fill="#C8F5FF"/>
<path d="M14.8875 18.9531H28.9199L21.9037 42.956L14.8875 18.9531Z" fill="#C8F5FF"/>
<path d="M35.221 33.7655C35.221 31.0766 37.3963 28.8969 40.0796 28.8969C37.3963 28.8969 35.221 26.7172 35.221 24.0283C35.221 26.7172 33.0457 28.8969 30.3624 28.8969C33.0456 28.8969 35.221 31.0767 35.221 33.7655Z" fill="#7D9BFF"/>
<path d="M4.27809 7.71666C4.27809 5.82255 5.81045 4.28704 7.70068 4.28704C5.81045 4.28704 4.27809 2.75153 4.27809 0.857422C4.27809 2.75153 2.74573 4.28704 0.855498 4.28704C2.74573 4.28713 4.27809 5.82264 4.27809 7.71666Z" fill="#7D9BFF"/>
<path d="M7.15625 7.76224C7.31448 7.5206 7.58335 7.375 7.87173 7.375H35.9084C36.1962 7.375 36.4646 7.51992 36.6229 7.76079L43.6504 18.4496C43.6838 18.4958 43.7129 18.5457 43.7371 18.599C43.8758 18.9055 43.8227 19.2649 43.6014 19.518L40.0394 23.5934C39.728 23.9497 39.1876 23.9855 38.832 23.6736C38.4765 23.3616 38.4408 22.8199 38.7521 22.4638L41.0709 19.8106H29.5612L23.7776 39.5969L30.3133 32.1192C30.6246 31.7629 31.1652 31.7271 31.5206 32.039C31.8761 32.3511 31.9119 32.8927 31.6005 33.2489L22.5477 43.6067C22.3853 43.7926 22.1506 43.8992 21.9041 43.8992C21.6574 43.8992 21.4229 43.7926 21.2605 43.6066L11.6223 32.5765C11.3109 32.2202 11.3468 31.6785 11.7024 31.3667C12.0581 31.0546 12.5986 31.0906 12.9098 31.4469L20.0303 39.5959L14.2469 19.8106H2.74203L8.06324 25.9005C8.37465 26.2568 8.33879 26.7985 7.98315 27.1103C7.82081 27.2528 7.61989 27.3227 7.41982 27.3227C7.18176 27.3227 6.94489 27.2237 6.77579 27.0301L0.211803 19.518C-0.0414085 19.2283 -0.0707626 18.805 0.140003 18.483L7.15625 7.76224ZM2.43996 18.0958H13.3036L7.87173 9.79596L2.43996 18.0958ZM28.9063 17.3682L34.3241 9.0899H23.4885L28.9063 17.3682ZM21.9041 9.79596L16.4724 18.0958H27.3359L21.9041 9.79596ZM20.3197 9.0899H9.45604L14.8879 17.3897L20.3197 9.0899ZM35.9101 9.79347L30.4766 18.0958H41.3684L35.9101 9.79347ZM21.9041 39.9059L27.7781 19.8106H16.0301L21.9041 39.9059Z" fill="black"/>
<path d="M29.5066 28.8969C29.5066 28.4234 29.8898 28.0395 30.3622 28.0395C32.5694 28.0395 34.3652 26.24 34.3652 24.0283C34.3652 23.5548 34.7484 23.1709 35.2208 23.1709C35.6933 23.1709 36.0765 23.5548 36.0765 24.0283C36.0765 26.24 37.8722 28.0395 40.0794 28.0395C40.5519 28.0395 40.9351 28.4234 40.9351 28.8969C40.9351 29.3704 40.5519 29.7543 40.0794 29.7543C37.8722 29.7543 36.0765 31.5537 36.0765 33.7655C36.0765 34.239 35.6933 34.6229 35.2208 34.6229C34.7484 34.6229 34.3652 34.239 34.3652 33.7655C34.3652 31.5537 32.5694 29.7543 30.3622 29.7543C29.8896 29.7543 29.5066 29.3705 29.5066 28.8969ZM35.2208 30.7543C35.6873 30.0012 36.3229 29.3644 37.0743 28.8969C36.3229 28.4295 35.6874 27.7926 35.2208 27.0395C34.7544 27.7925 34.1187 28.4294 33.3673 28.8969C34.1187 29.3644 34.7543 30.0012 35.2208 30.7543Z" fill="black"/>
<path d="M7.70099 5.14443C6.28561 5.14443 5.13405 6.29836 5.13405 7.71665C5.13405 8.19016 4.75085 8.57405 4.2784 8.57405C3.80595 8.57405 3.42275 8.19016 3.42275 7.71665C3.42275 6.29836 2.27119 5.14443 0.855807 5.14443C0.383356 5.14443 0.000159264 4.76053 0.000159264 4.28703C0.000159264 3.81352 0.383356 3.42962 0.855807 3.42962C2.27119 3.42962 3.42275 2.2757 3.42275 0.857405C3.42275 0.383899 3.80595 0 4.2784 0C4.75085 0 5.13405 0.383899 5.13405 0.857405C5.13405 2.2757 6.28561 3.42962 7.70099 3.42962C8.17344 3.42962 8.55664 3.81352 8.55664 4.28703C8.55664 4.76053 8.17344 5.14443 7.70099 5.14443ZM4.2784 3.42696C4.03426 3.75264 3.74511 4.04238 3.4201 4.28703C3.74511 4.53167 4.03434 4.82141 4.2784 5.14709C4.52254 4.82141 4.81169 4.53167 5.1367 4.28703C4.81169 4.04238 4.52254 3.75255 4.2784 3.42696Z" fill="black"/>
<path d="M9.95099 28.5039C10.1761 28.5039 10.3959 28.5948 10.5559 28.7552C10.7151 28.9146 10.8066 29.1359 10.8066 29.3613C10.8066 29.5867 10.7152 29.808 10.5559 29.9675C10.3967 30.127 10.1761 30.2187 9.95099 30.2187C9.72593 30.2187 9.50524 30.127 9.34616 29.9675C9.18699 29.808 9.09535 29.5867 9.09535 29.3613C9.09535 29.1359 9.18691 28.9146 9.34616 28.7552C9.50516 28.5948 9.72593 28.5039 9.95099 28.5039Z" fill="black"/>
</svg>
