<svg width="42" height="42" viewBox="0 0 42 42" fill="none" xmlns="http://www.w3.org/2000/svg">
<path d="M40.6973 17.0576H8.6748L13.4569 33.3031H35.9153L40.6973 17.0576Z" fill="#C8F5FF"/>
<path d="M27.0839 7.87891H12.4922V17.0576H27.0839V7.87891Z" fill="#F5C86E"/>
<path d="M21.6631 0.8125V7.87929H27.0837V17.058H36.5799V0.8125H21.6631Z" fill="#FF5A5A"/>
<path d="M28.8458 33.8767C28.9966 33.7257 29.0833 33.5161 29.0833 33.3025C29.0833 33.0889 28.9966 32.8793 28.8458 32.7282C28.695 32.5771 28.4858 32.4902 28.2718 32.4902C28.0586 32.4902 27.8494 32.5771 27.6994 32.7282C27.5478 32.8793 27.4619 33.0881 27.4619 33.3025C27.4619 33.5161 27.5478 33.7257 27.6994 33.8767C27.8502 34.0278 28.0586 34.1148 28.2718 34.1148C28.4858 34.1148 28.6942 34.0279 28.8458 33.8767Z" fill="black"/>
<path d="M41.3463 16.5714C41.1933 16.3663 40.9526 16.2455 40.697 16.2455H37.3906V0.812274C37.3906 0.363736 37.0277 0 36.5799 0H21.6631C21.2153 0 20.8524 0.363736 20.8524 0.812274V7.06679H12.4919C12.0442 7.06679 11.6812 7.43052 11.6812 7.87906V16.2455H8.67451C8.41889 16.2455 8.17828 16.3663 8.02522 16.5714C7.87216 16.7765 7.82457 17.0419 7.89689 17.2876L12.6789 33.533C12.7806 33.8784 13.0971 34.1155 13.4565 34.1155H24.6858C25.1335 34.1155 25.4965 33.7518 25.4965 33.3032C25.4965 32.8547 25.1335 32.491 24.6858 32.491H14.0627L9.75889 17.87H12.492H27.0838H36.58H39.6127L35.3089 32.491H32.3469C31.8991 32.491 31.5362 32.8547 31.5362 33.3032C31.5362 33.7518 31.8991 34.1155 32.3469 34.1155H35.915C36.2744 34.1155 36.5908 33.8784 36.6925 33.533L41.4746 17.2876C41.5469 17.0419 41.4994 16.7765 41.3463 16.5714ZM13.3026 8.69134H21.6631H26.273V16.2455H13.3026V8.69134ZM27.8945 16.2455V7.87906C27.8945 7.43052 27.5316 7.06679 27.0838 7.06679H22.4739V1.62455H35.7693V16.2455H27.8945Z" fill="black"/>
<path d="M36.8138 35.5779H11.7999L5.08145 12.7544C4.97979 12.409 4.66329 12.1719 4.30391 12.1719H0.810697C0.362949 12.1719 0 12.5356 0 12.9841C0 13.4327 0.362949 13.7964 0.810697 13.7964H3.69775L10.4162 36.6199C10.5179 36.9653 10.8344 37.2024 11.1938 37.2024H15.2161C15.0015 37.6162 14.8794 38.0856 14.8794 38.5833C14.8794 40.2405 16.225 41.5887 17.879 41.5887C19.533 41.5887 20.8786 40.2405 20.8786 38.5833C20.8786 38.0856 20.7565 37.6162 20.5419 37.2024H27.178C26.9634 37.6162 26.8413 38.0856 26.8413 38.5833C26.8413 40.2405 28.1869 41.5887 29.8409 41.5887C31.4948 41.5887 32.8404 40.2405 32.8404 38.5833C32.8404 38.0856 32.7183 37.6162 32.5038 37.2024H36.8139C37.2617 37.2024 37.6246 36.8387 37.6246 36.3902C37.6246 35.9416 37.2616 35.5779 36.8138 35.5779ZM19.2572 38.5833C19.2572 39.3447 18.639 39.9642 17.879 39.9642C17.1191 39.9642 16.5008 39.3447 16.5008 38.5833C16.5008 37.8219 17.1191 37.2024 17.879 37.2024C18.639 37.2024 19.2572 37.8219 19.2572 38.5833ZM31.219 38.5833C31.219 39.3447 30.6007 39.9642 29.8408 39.9642C29.0808 39.9642 28.4626 39.3447 28.4626 38.5833C28.4626 37.8219 29.0808 37.2024 29.8408 37.2024C30.6007 37.2024 31.219 37.8219 31.219 38.5833Z" fill="black"/>
<path d="M19.7874 21.8501C19.5742 21.8501 19.3659 21.7632 19.2143 21.6121C19.0635 21.4611 18.9775 21.2515 18.9775 21.0379C18.9775 20.8242 19.0635 20.6147 19.2143 20.4636C19.3651 20.3125 19.5742 20.2256 19.7874 20.2256C20.0014 20.2256 20.2106 20.3124 20.3614 20.4636C20.5122 20.6147 20.5981 20.8242 20.5981 21.0379C20.5981 21.2515 20.5122 21.4611 20.3614 21.6121C20.2098 21.7632 20.0014 21.8501 19.7874 21.8501Z" fill="black"/>
<path d="M16.3775 21.8501H10.4914C10.0436 21.8501 9.68066 21.4864 9.68066 21.0379C9.68066 20.5893 10.0436 20.2256 10.4914 20.2256H16.3775C16.8253 20.2256 17.1882 20.5893 17.1882 21.0379C17.1882 21.4864 16.8253 21.8501 16.3775 21.8501Z" fill="black"/>
</svg>
