<svg width="40" height="40" viewBox="0 0 40 40" fill="none" xmlns="http://www.w3.org/2000/svg">
<path d="M14.8783 8.73047H7.45329L0.78125 15.4035L4.49376 19.1166L20.8751 35.5005L24.5876 39.2135L31.2597 32.5404V25.1144L14.8783 8.73047Z" fill="#FF5A5A"/>
<path d="M19.6142 36.7601L32.0204 24.3521C38.0218 18.3498 40.503 9.67588 38.5838 1.40713L38.5923 1.41557C30.3248 -0.503783 21.6522 1.97777 15.6507 7.98008L3.24463 20.3881L19.6142 36.7601Z" fill="#C8F5FF"/>
<path d="M23.3309 22.4467C26.524 22.4467 29.1125 19.8578 29.1125 16.6643C29.1125 13.4707 26.524 10.8818 23.3309 10.8818C20.1378 10.8818 17.5493 13.4707 17.5493 16.6643C17.5493 19.8578 20.1378 22.4467 23.3309 22.4467Z" fill="#7D9BFF"/>
<path d="M12.2004 36.042L3.95508 27.7955L6.37258 23.5156L16.4796 33.6242L12.2004 36.042Z" fill="#FF5A5A"/>
<path d="M10.6809 34.5162C8.83954 36.3578 6.54501 37.681 4.02891 38.3522L0.78125 39.2185L1.64742 35.9703C2.31852 33.4539 3.64149 31.159 5.48282 29.3174L10.6809 34.5162Z" fill="#F5C86E"/>
<path d="M39.37 1.33899C39.3527 1.1649 39.2772 0.997058 39.1474 0.866179L39.1391 0.85774C39.0075 0.724986 38.8373 0.647552 38.6606 0.630128C34.5077 -0.314625 30.1521 -0.19531 26.057 0.976508C21.9261 2.15848 18.1367 4.38945 15.0985 7.42811L14.5783 7.94835H7.45339C7.2462 7.94835 7.04753 8.0307 6.90097 8.17721L0.228849 14.8503C-0.0762296 15.1554 -0.0762296 15.6502 0.228849 15.9554L3.40065 19.1278L2.69237 19.8362C2.38729 20.1413 2.38729 20.6361 2.69237 20.9413L5.39987 23.6492L3.27432 27.412C3.10174 27.7176 3.15401 28.1008 3.40214 28.3489L4.38987 29.3368C2.73456 31.1693 1.53049 33.377 0.892678 35.7691L0.0264269 39.0172C-0.0454483 39.2866 0.0316612 39.5739 0.228849 39.7711C0.377287 39.9195 0.576818 40 0.78135 40C0.848381 40 0.916116 39.9914 0.9826 39.9736L4.23026 39.1072C6.62191 38.4692 8.82941 37.2651 10.6617 35.6093L11.6474 36.5952C11.7979 36.7456 11.9978 36.8241 12.2 36.8241C12.3314 36.8241 12.4638 36.7909 12.5841 36.723L16.3464 34.5972L19.0618 37.313C19.2143 37.4656 19.4143 37.5419 19.6142 37.5419C19.8141 37.5419 20.014 37.4656 20.1666 37.313L20.875 36.6046L24.0349 39.765C24.1815 39.9115 24.3801 39.9939 24.5873 39.9939C24.7945 39.9939 24.9932 39.9115 25.1397 39.765L31.8118 33.092C31.9583 32.9454 32.0406 32.7467 32.0406 32.5395V25.4372L32.5726 24.9051C35.6108 21.8664 37.8414 18.0764 39.0233 13.9448C40.1953 9.84902 40.3146 5.49251 39.37 1.33899ZM1.88627 15.4028L7.77706 9.51116H13.0157L5.93542 16.5925C5.93526 16.5926 5.93503 16.5928 5.93487 16.593C5.93472 16.5933 5.93456 16.5934 5.93433 16.5936L4.50565 18.0225L1.88627 15.4028ZM3.82768 37.5972L1.88409 38.1157L2.40245 36.1718C2.96956 34.0451 4.03385 32.0801 5.49604 30.4429L9.5555 34.503C7.91863 35.9656 5.95401 37.0301 3.82768 37.5972ZM12.3326 35.0703L11.2914 34.0289C11.2734 34.0064 11.2543 33.9846 11.2335 33.9637C11.2127 33.9429 11.1908 33.9238 11.1684 33.9059L6.09339 28.8301C6.07542 28.8076 6.05628 28.7858 6.0355 28.7649C6.01472 28.7442 5.99284 28.7251 5.97042 28.7071L4.92706 27.6637L6.54675 24.7961L15.1997 33.4504L12.3326 35.0703ZM30.4785 32.2159L24.5877 38.1076L21.9802 35.4996L30.4785 27.0001V32.2159ZM31.4682 23.8001L20.3236 34.9463C20.3233 34.9466 20.323 34.9468 20.3228 34.947C20.3226 34.9473 20.3223 34.9476 20.3221 34.9478L19.6145 35.6555L17.0318 33.0725L17.0318 33.0724L6.92472 22.9639C6.92456 22.9637 6.92433 22.9636 6.92417 22.9634L4.34979 20.3887L6.48737 18.2508L16.9144 28.6794C17.067 28.8319 17.2669 28.9082 17.4668 28.9082C17.6668 28.9082 17.8667 28.8319 18.0193 28.6794C18.3243 28.3743 18.3243 27.8794 18.0193 27.5742L7.5923 17.1456L16.2035 8.53312C21.9358 2.79975 30.0251 0.403218 37.9305 2.06988C39.5968 9.97654 37.2006 18.0668 31.4682 23.8001Z" fill="black"/>
<path d="M29.1122 15.8828C28.6808 15.8828 28.3309 16.2327 28.3309 16.6643L28.3306 16.7138C28.3271 17.1453 28.674 17.498 29.1055 17.5015C29.1077 17.5015 29.1099 17.5016 29.1121 17.5016C29.5405 17.5016 29.8897 17.1557 29.8933 16.7264L29.8936 16.6643C29.8935 16.2327 29.5437 15.8828 29.1122 15.8828Z" fill="black"/>
<path d="M28.7204 18.9013C28.3478 18.6836 27.8693 18.8093 27.6517 19.1819C26.7572 20.7134 25.1014 21.6647 23.3305 21.6647C20.5733 21.6647 18.3302 19.4213 18.3302 16.6637C18.3302 13.906 20.5733 11.6626 23.3305 11.6626C24.8127 11.6626 26.2097 12.3148 27.1635 13.4517C27.4409 13.7825 27.9338 13.8253 28.2642 13.5481C28.5947 13.2708 28.6379 12.7779 28.3606 12.4472C27.1092 10.9553 25.2759 10.0996 23.3305 10.0996C19.7117 10.0996 16.7676 13.0442 16.7676 16.6635C16.7676 20.2828 19.7117 23.2274 23.3305 23.2274C25.6546 23.2274 27.8274 21.9792 29.0009 19.9699C29.2186 19.5976 29.0929 19.1191 28.7204 18.9013Z" fill="black"/>
<path d="M19.2993 29.1797C19.0938 29.1797 18.8923 29.2626 18.7471 29.4087C18.6017 29.554 18.5181 29.7549 18.5181 29.9611C18.5181 30.1666 18.6017 30.3681 18.7471 30.5135C18.8923 30.6588 19.0938 30.7424 19.2993 30.7424C19.5056 30.7424 19.7063 30.6589 19.8517 30.5135C19.9978 30.3674 20.0806 30.1666 20.0806 29.9611C20.0806 29.7556 19.9978 29.554 19.8517 29.4087C19.7064 29.2625 19.5056 29.1797 19.2993 29.1797Z" fill="black"/>
</svg>
