<svg width="42" height="42" viewBox="0 0 42 42" fill="none" xmlns="http://www.w3.org/2000/svg">
<path d="M20.7538 40.7766C31.7681 40.7766 40.697 31.8303 40.697 20.7945C40.697 9.75876 31.7681 0.8125 20.7538 0.8125C9.73944 0.8125 0.810547 9.75876 0.810547 20.7945C0.810547 31.8303 9.73944 40.7766 20.7538 40.7766Z" fill="white"/>
<path d="M26.5684 12.2656C24.2781 12.2656 22.2126 13.2544 20.7536 14.8389C19.2946 13.2544 17.2292 12.2656 14.9389 12.2656C10.5183 12.2656 6.93457 15.9485 6.93457 20.4916C6.93457 26.8554 20.7536 35.6202 20.7536 35.6202C20.7536 35.6202 34.5727 26.8554 34.5727 20.4916C34.5727 15.9485 30.989 12.2656 26.5684 12.2656Z" fill="#FF5A5A"/>
<path d="M20.7538 41.5884C15.2102 41.5884 9.99845 39.4254 6.07847 35.498C2.57754 31.9902 0.44053 27.338 0.061284 22.3985C-0.313827 17.5128 1.04215 12.642 3.87936 8.68308C4.14057 8.31885 4.64701 8.23543 5.01078 8.49706C5.37446 8.75878 5.45755 9.26629 5.19643 9.63068C-0.286993 17.2817 0.566108 27.6773 7.22504 34.3492C10.8387 37.9699 15.6433 39.9639 20.7538 39.9639C25.8643 39.9639 30.6688 37.9699 34.2825 34.3492C37.8962 30.7285 39.8863 25.9146 39.8863 20.7941C39.8863 15.6737 37.8962 10.8597 34.2825 7.23909C27.6547 0.598395 17.3094 -0.278134 9.68366 5.15511C9.31876 5.41512 8.81264 5.32942 8.55322 4.9639C8.29371 4.59829 8.37924 4.09119 8.74405 3.83126C12.6933 1.01729 17.5438 -0.320535 22.4006 0.0650528C27.3129 0.45454 31.9398 2.5944 35.429 6.09037C39.3489 10.018 41.5076 15.2399 41.5076 20.7942C41.5076 26.3486 39.3488 31.5705 35.429 35.4981C31.5091 39.4254 26.2974 41.5884 20.7538 41.5884Z" fill="black"/>
<path d="M6.64421 7.48474C6.4361 7.48474 6.22791 7.40497 6.0695 7.24536C5.75365 6.92735 5.75503 6.41302 6.07242 6.09664L6.08783 6.08128C6.40522 5.76482 6.91839 5.76596 7.23432 6.08421C7.55017 6.40222 7.54879 6.91655 7.2314 7.23293L7.216 7.24828C7.05775 7.40595 6.85094 7.48474 6.64421 7.48474Z" fill="black"/>
<path d="M20.7538 36.4323C20.6032 36.4323 20.4525 36.3903 20.3201 36.3063C20.177 36.2156 16.775 34.0486 13.3146 31.0571C8.54332 26.9322 6.12402 23.3774 6.12402 20.4914C6.12402 15.5078 10.0784 11.4531 14.939 11.4531C17.1113 11.4531 19.147 12.2442 20.7538 13.6971C22.3605 12.2442 24.3963 11.4531 26.5685 11.4531C31.4292 11.4531 35.3835 15.5077 35.3835 20.4914C35.3835 23.3774 32.9642 26.9322 28.1929 31.0571C24.7325 34.0486 21.3306 36.2156 21.1874 36.3063C21.0549 36.3903 20.9043 36.4323 20.7538 36.4323ZM14.939 13.0777C10.9724 13.0777 7.74543 16.4034 7.74543 20.4914C7.74543 22.85 10.0374 26.0783 14.3739 29.8272C17.0412 32.1331 19.7328 33.974 20.7565 34.6523C24.7603 32.0329 33.7622 25.1632 33.7622 20.4914C33.7622 16.4035 30.5351 13.0777 26.5686 13.0777C24.5759 13.0777 22.7225 13.8986 21.3497 15.3895C21.1963 15.5562 20.9802 15.651 20.7539 15.651C20.5275 15.651 20.3115 15.5562 20.158 15.3895C18.7851 13.8987 16.9317 13.0777 14.939 13.0777Z" fill="black"/>
<path d="M31.1182 21.3035C30.6705 21.3035 30.3075 20.9398 30.3075 20.4912C30.3075 18.3112 28.6302 16.5376 26.5686 16.5376C26.3592 16.5376 26.1499 16.5558 25.9466 16.5914C25.5057 16.6683 25.0855 16.3732 25.0082 15.9314C24.931 15.4895 25.226 15.0686 25.667 14.9911C25.9624 14.9393 26.2658 14.9131 26.5686 14.9131C29.5243 14.9131 31.9289 17.4155 31.9289 20.4912C31.9289 20.9398 31.566 21.3035 31.1182 21.3035ZM23.2935 17.9964C23.0944 17.9964 22.8949 17.9235 22.7384 17.776C22.4122 17.4688 22.3962 16.9547 22.7029 16.6278L22.7086 16.6216C23.0118 16.2917 23.5249 16.2707 23.8541 16.5748C24.1834 16.8787 24.2043 17.3926 23.9009 17.7225L23.8842 17.7405C23.7248 17.9105 23.5094 17.9964 23.2935 17.9964Z" fill="black"/>
<path d="M20.7536 7.73353C20.3059 7.73353 19.9429 7.3698 19.9429 6.92126V4.80154C19.9429 4.353 20.3059 3.98926 20.7536 3.98926C21.2012 3.98926 21.5643 4.353 21.5643 4.80154V6.92134C21.5643 7.36988 21.2012 7.73353 20.7536 7.73353Z" fill="black"/>
<path d="M12.8482 9.95451C12.6406 9.95451 12.4333 9.87515 12.2749 9.71659L10.7789 8.21769C10.4624 7.9005 10.4624 7.38617 10.7789 7.06889C11.0956 6.75178 11.6088 6.75178 11.9255 7.06889L13.4215 8.56779C13.7381 8.88498 13.7381 9.39931 13.4215 9.71659C13.2631 9.87515 13.0557 9.95451 12.8482 9.95451Z" fill="black"/>
<path d="M28.6593 9.95451C28.4518 9.95451 28.2444 9.87515 28.0861 9.71659C27.7695 9.3994 27.7695 8.88506 28.0861 8.56779L29.5821 7.06889C29.8987 6.75178 30.4119 6.75178 30.7286 7.06889C31.0452 7.38608 31.0452 7.90042 30.7286 8.21769L29.2326 9.71659C29.0742 9.87515 28.8669 9.95451 28.6593 9.95451Z" fill="black"/>
</svg>
