<svg width="429" height="395" viewBox="0 0 429 395" fill="none" xmlns="http://www.w3.org/2000/svg">
<g filter="url(#filter0_d)">
<path d="M80.9983 131.43L73.2153 113.916L67.8841 116.288L75.667 133.802L80.9983 131.43Z" fill="#F2BB4E"/>
<path d="M125.442 228.44L217.147 209.933L318.76 225.025L238.725 244.965L125.442 228.44Z" fill="#567BD6"/>
<path d="M217.146 209.933L219.789 328.689L308.081 343.781L318.759 225.025L217.146 209.933Z" fill="#2B4EA5"/>
<path d="M238.725 370L138.763 346.756L125.442 228.44L238.725 244.965V370Z" fill="#4363C9"/>
<path d="M238.725 244.965L318.76 225.025L308.081 343.782L238.725 370V244.965Z" fill="#567BD6"/>
<path d="M266.577 359.424L283.641 353.035L297.182 230.312L279.568 234.829L266.577 359.424Z" fill="#EBB02A"/>
<path d="M170.139 354.027L157.259 233.067L178.946 236.262L187.974 358.103L170.139 354.027Z" fill="#EBB02A"/>
<path d="M317.767 80.1602L242.906 108.692L244.337 135.683L316.556 105.388L317.767 80.1602Z" fill="#4363C9"/>
<path d="M317.768 80.16L239.274 74.8722L213.073 73.2197L113.882 104.396L242.907 108.692L317.768 80.16Z" fill="#7DA9EF"/>
<path d="M119.607 128.302L244.338 135.683L242.907 108.693L113.882 104.396L119.607 128.302Z" fill="#567BD6"/>
<path d="M144.927 105.388L170.908 106.599L176.522 131.717L153.404 130.285L144.927 105.388Z" fill="#EBB02A"/>
<path d="M144.927 105.387L239.274 74.8721L261.182 76.4144L170.908 106.599L144.927 105.387Z" fill="#F2BB4E"/>
<path d="M279.677 95.0317L278.136 121.471L294.319 114.751L296.08 88.4219L279.677 95.0317Z" fill="#EBB02A"/>
<path d="M296.08 88.4228L180.926 83.2451L162.211 89.1939L279.677 95.0326L296.08 88.4228Z" fill="#F2BB4E"/>
<path d="M142.505 53.1707C142.505 53.1707 171.789 87.101 207.017 88.3128C215.164 87.4315 218.907 85.0079 218.907 85.0079L167.936 51.9589C170.468 40.9425 175.972 30.9177 184.009 22.9859C187.311 19.681 183.789 14.1728 179.385 15.9354L164.743 21.7741L149.771 36.4258L142.505 53.1707Z" fill="#E89A24"/>
<path d="M215.274 87.4311L186.541 35.7645C185.99 34.6629 184.889 34.0019 183.678 33.7816C180.045 33.2307 171.679 32.6799 161.771 36.6458C148.34 41.9336 142.505 53.0601 142.505 53.0601L149.771 36.2051C151.863 31.358 154.835 27.0616 158.688 23.5364C165.844 16.8164 174.651 12.4099 184.229 10.7574L192.816 9.21512C196.339 8.55414 199.862 10.6472 200.963 14.1725L222.98 82.4738L215.274 87.4311Z" fill="#F2BB4E"/>
<path d="M287.053 37.7477C287.053 37.7477 265.586 77.0761 231.348 85.6688C223.201 86.5501 219.018 85.0078 219.018 85.0078L261.953 41.934C257.219 31.6888 249.623 23.096 240.155 17.037C236.192 14.5033 238.614 8.33412 243.237 9.10526L258.65 11.639L276.374 22.7655L287.053 37.7477Z" fill="#E89A24"/>
<path d="M223.091 86.5496L240.265 30.0358C240.595 28.824 241.476 27.9427 242.687 27.502C246.1 26.1801 254.136 23.9768 264.705 25.7394C279.017 28.163 286.943 37.7472 286.943 37.7472L276.265 22.765C273.182 18.4686 269.329 14.9434 264.925 12.1893C256.669 7.23195 247.091 4.6982 237.403 5.02869L228.706 5.35918C225.073 5.46934 222.1 8.33359 221.77 11.8588L214.614 83.2447L223.091 86.5496Z" fill="#F2BB4E"/>
<path d="M325.514 173.704L339.317 164.046L336.416 159.893L322.612 169.551L325.514 173.704Z" fill="#F2BB4E"/>
<path d="M356.928 176.316L370.731 166.658L367.83 162.505L354.026 172.163L356.928 176.316Z" fill="#F2BB4E"/>
<path d="M357.663 139.721L364.282 124.221L359.625 122.229L353.006 137.729L357.663 139.721Z" fill="#2B4EA5"/>
<path d="M327.216 140.734L331.09 124.331L326.161 123.166L322.287 139.569L327.216 140.734Z" fill="#F2BB4E"/>
<path d="M327.333 203.317L344.039 201.161L343.391 196.135L326.686 198.291L327.333 203.317Z" fill="#2B4EA5"/>
<path d="M398.644 170.723L414 163.797L411.919 159.177L396.563 166.103L398.644 170.723Z" fill="#2B4EA5"/>
<path d="M255.632 237.228L266.968 224.761L263.222 221.35L251.886 233.818L255.632 237.228Z" fill="#567BD6"/>
<path d="M382.577 143.382L395.478 132.544L392.221 128.663L379.321 139.501L382.577 143.382Z" fill="#F2BB4E"/>
<path d="M284.305 225.645L296.215 213.727L292.634 210.143L280.724 222.061L284.305 225.645Z" fill="#567BD6"/>
<path d="M376.648 225.562L393.423 224.031L392.963 218.985L376.188 220.516L376.648 225.562Z" fill="#567BD6"/>
<path d="M375.668 197.167L392.277 194.367L391.436 189.37L374.827 192.17L375.668 197.167Z" fill="#567BD6"/>
<path d="M156.195 217.248L169.215 227.94L172.428 224.023L159.407 213.33L156.195 217.248Z" fill="#2B4EA5"/>
<path d="M335.115 230.535L350.736 224.229L348.842 219.53L333.221 225.835L335.115 230.535Z" fill="#F2BB4E"/>
<path d="M234.273 221.442L230.813 237.938L235.77 238.978L239.229 222.482L234.273 221.442Z" fill="#F2BB4E"/>
<path d="M201.482 217.709L206.013 233.942L210.89 232.579L206.359 216.346L201.482 217.709Z" fill="#F2BB4E"/>
<path d="M107.137 190.761L93.3335 181.104L90.4318 185.256L104.235 194.914L107.137 190.761Z" fill="#F2BB4E"/>
<path d="M81.4438 195.983L65.3867 190.891L63.8568 195.721L79.914 200.813L81.4438 195.983Z" fill="#4363C9"/>
<path d="M93.7266 164.513L82.5205 151.929L78.7396 155.3L89.9458 167.884L93.7266 164.513Z" fill="#4363C9"/>
<path d="M120.259 160.731L111.837 146.135L107.451 148.669L115.873 163.265L120.259 160.731Z" fill="#F2BB4E"/>
<path d="M120.602 215.848L104.173 219.566L105.29 224.509L121.719 220.791L120.602 215.848Z" fill="#2B4EA5"/>
<path d="M93.842 239.427L77.4126 243.146L78.5297 248.088L94.9591 244.37L93.842 239.427Z" fill="#F2BB4E"/>
<path d="M32.5558 190.885L16.1602 187.023L15 191.956L31.3956 195.818L32.5558 190.885Z" fill="#4363C9"/>
<path d="M60.5015 150.093L48.5913 138.175L45.0105 141.758L56.9207 153.676L60.5015 150.093Z" fill="#2B4EA5"/>
<path d="M59.1763 174.264L44.1719 166.604L41.8702 171.118L56.8746 178.778L59.1763 174.264Z" fill="#F2BB4E"/>
<path d="M68.5539 219.302L52.207 215.241L50.9871 220.159L67.3339 224.22L68.5539 219.302Z" fill="#F2BB4E"/>
</g>
<defs>
<filter id="filter0_d" x="0" y="0" width="429" height="395" filterUnits="userSpaceOnUse" color-interpolation-filters="sRGB">
<feFlood flood-opacity="0" result="BackgroundImageFix"/>
<feColorMatrix in="SourceAlpha" type="matrix" values="0 0 0 0 0 0 0 0 0 0 0 0 0 0 0 0 0 0 127 0"/>
<feOffset dy="10"/>
<feGaussianBlur stdDeviation="7.5"/>
<feColorMatrix type="matrix" values="0 0 0 0 0.360405 0 0 0 0 0.409064 0 0 0 0 0.436681 0 0 0 0.25 0"/>
<feBlend mode="normal" in2="BackgroundImageFix" result="effect1_dropShadow"/>
<feBlend mode="normal" in="SourceGraphic" in2="effect1_dropShadow" result="shape"/>
</filter>
</defs>
</svg>
