<svg width="262" height="406" viewBox="0 0 262 406" fill="none" xmlns="http://www.w3.org/2000/svg">
<g opacity="0.1">
<path fill-rule="evenodd" clip-rule="evenodd" d="M247.986 328.358C234.415 299.334 233.628 290.31 237.545 258.54C241.518 226.339 249.548 195.553 246.019 162.771C242.322 128.457 221.98 95.2528 193.727 76.2526C182.039 68.3813 164.537 60.6289 150.477 59.227C170.037 45.8844 190.48 33.6464 208.242 30.5042C197.815 26.2347 192.818 26.2576 191.112 24.9838C189.302 23.63 190.482 18.3268 191.689 12.7549C160.126 23.4562 144.822 50.3095 125.329 67.965C149.104 67.4459 168.023 70.8876 188.38 84.5881C214.142 101.934 232.972 132.579 236.341 163.865C239.749 195.572 231.732 226.092 227.885 257.282C224.33 286.096 224.154 298.161 235.756 325.167L172.045 356.841C157.889 329.964 148.024 322.546 122.794 307.264C97.0433 291.67 69.5682 279.316 47.9293 257.538C25.7366 235.204 14.12 201.566 16.7673 169.914C20.3537 127.067 49.651 92.4995 87.1416 76.758C106.49 68.6408 136.462 63.6955 144.211 40.93C149.923 20.6319 138.179 7.58318 124.898 9.67907C108.415 12.2746 101.929 27.1048 99.627 41.1404C85.9771 10.6052 68.2852 0.0102908 53.626 0H53.5713C29.1477 0.0274421 13.1832 29.4374 38.4866 44.8748C40.2161 45.9301 42.083 46.9009 44.047 47.7985C30.3536 46.9615 16.0058 47.7482 3.79852 51.6221C8.43335 55.8871 12.8705 59.9291 12.0789 62.368C11.3375 64.664 6.77973 67.9662 0 78.7956C19.8289 69.0101 49.4824 66.0921 78.0774 65.238C82.9144 62.456 90.3428 60.8861 94.933 59.3093C93.0572 56.1569 70.6434 51.1579 56.1673 41.5611C45.5767 34.5382 34.6099 15.7003 55.3667 17.1033C70.9069 18.1587 97.51 29.7461 98.5573 59.3093L105.337 57.3415C107.828 20.274 122.5 17.6464 129.797 24.7242C133.638 28.4495 134.585 35.134 132.486 40.3171C126.88 54.1594 102.135 60.5168 88.8745 65.4187C45.7062 81.3717 11.1354 120.362 7.05552 169.053C4.16252 203.677 16.8388 240.229 41.1027 264.651C63.4974 287.189 91.216 299.738 117.832 315.852C145.678 332.709 152.529 338.689 166.942 368.657L167.648 370.128L248.677 329.836L247.986 328.358Z" fill="#153A3E"/>
<path fill-rule="evenodd" clip-rule="evenodd" d="M253.064 335.223L169.586 377.646L172.192 383.021L255.67 340.606L253.064 335.223Z" fill="#013A43"/>
<path fill-rule="evenodd" clip-rule="evenodd" d="M174.916 388.636L177.522 394.016L261.003 351.602L258.389 346.218L174.916 388.636Z" fill="#013A43"/>
<path fill-rule="evenodd" clip-rule="evenodd" d="M190.809 393.782C199.653 406.057 217.637 409.755 233.314 401.785C248.992 393.818 256.992 376.919 252.798 362.283L190.809 393.782Z" fill="#013A43"/>
<path fill-rule="evenodd" clip-rule="evenodd" d="M81.8612 174.286L69.8336 144.445L57.8061 174.284L26.375 176.777L50.372 197.711L42.9737 229.094L69.8291 212.193L96.6901 229.094L89.2918 197.716L113.289 176.777L81.8612 174.286Z" fill="#DFC550"/>
<path fill-rule="evenodd" clip-rule="evenodd" d="M157.155 230.872L135.093 241.683L115.699 226.409L118.923 251.241L98.7441 265.407L122.804 269.94L129.722 293.971L141.366 271.94L165.822 272.624L148.96 254.477L157.155 230.872Z" fill="#8A3494"/>
<path fill-rule="evenodd" clip-rule="evenodd" d="M206.661 220.716L200.704 205.932L194.743 220.714L179.174 221.949L191.062 232.32L187.395 247.868L200.702 239.493L214.01 247.868L210.344 232.322L222.233 221.949L206.661 220.716Z" fill="#E04097"/>
<path fill-rule="evenodd" clip-rule="evenodd" d="M156.904 176.675L152.904 166.755L148.905 176.675L138.457 177.505L146.435 184.463L143.975 194.897L152.904 189.278L161.833 194.897L159.373 184.465L167.351 177.505L156.904 176.675Z" fill="#B0E1EE"/>
<path fill-rule="evenodd" clip-rule="evenodd" d="M195.749 299.566L188.883 282.53L182.016 299.566L164.074 300.989L177.772 312.94L173.549 330.855L188.881 321.208L204.216 330.855L199.992 312.942L213.691 300.989L195.749 299.566Z" fill="#C5DC75"/>
<path fill-rule="evenodd" clip-rule="evenodd" d="M175.193 94.1044L155.768 103.623L138.696 90.1768L141.533 112.037L123.77 124.507L144.948 128.499L151.04 149.655L161.291 130.259L182.822 130.864L167.978 114.888L175.193 94.1044Z" fill="#2EBCDD"/>
<path fill-rule="evenodd" clip-rule="evenodd" d="M206.751 160.241L201.843 148.063L196.935 160.24L184.109 161.257L193.902 169.799L190.882 182.603L201.841 175.707L212.802 182.603L209.783 169.8L219.576 161.257L206.751 160.241Z" fill="#71CAC8"/>
<path fill-rule="evenodd" clip-rule="evenodd" d="M95.1079 104.756L87.11 93.1602L84.7909 107.159L71.5508 111.361L83.8351 117.945L83.6476 132.142L93.5581 122.213L106.684 126.783L100.524 114.061L108.824 102.689L95.1079 104.756Z" fill="#D8A4C0"/>
</g>
</svg>
