<svg width="49" height="49" viewBox="0 0 49 49" fill="none" xmlns="http://www.w3.org/2000/svg">
<path d="M24.5 49C38.031 49 49 38.031 49 24.5C49 10.969 38.031 0 24.5 0C10.969 0 0 10.969 0 24.5C0 38.031 10.969 49 24.5 49Z" fill="#53BC4F"/>
<path d="M38.4442 16.5443L35.3433 13.4781C34.92 13.0594 34.2335 13.0594 33.8102 13.4781L20.5549 27.1428L14.8387 21.49C14.4147 21.0713 13.7289 21.0713 13.3053 21.49L10.5567 24.2081C10.1334 24.6265 10.1334 25.3053 10.5567 25.7236L19.731 34.7948C19.9755 35.0366 20.307 35.1341 20.6256 35.0965C20.9442 35.1338 21.2756 35.0366 21.5201 34.7948L38.4443 18.0601C38.8675 17.6414 38.8675 16.963 38.4442 16.5443Z" fill="white"/>
<path d="M21.5197 34.7941L38.4439 18.0594C38.8671 17.6407 38.8671 16.9623 38.4439 16.5435L37.9378 16.043L20.5285 33.1804L10.9406 23.827L10.5567 24.2071C10.1334 24.6254 10.1334 25.3042 10.5567 25.7225L19.7306 34.7941C19.9751 35.036 20.3066 35.1335 20.6252 35.0959C20.9437 35.1335 21.2752 35.0364 21.5197 34.7941Z" fill="#F8F8F8"/>
</svg>
