<svg width="48" height="48" viewBox="0 0 48 48" fill="none" xmlns="http://www.w3.org/2000/svg">
<path d="M48 24C48 37.2546 37.2546 48 24 48C10.7454 48 0 37.2546 0 24C0 10.7454 10.7454 2.86102e-06 24 2.86102e-06C37.2546 2.86102e-06 48 10.7454 48 24Z" fill="#FFD97C"/>
<path d="M29.3331 36C29.3331 39.6841 26.9451 40 23.9998 40C21.0531 40 18.6665 39.6839 18.6665 36C18.6665 32.3187 21.0531 28 23.9998 28C26.9452 28 29.3331 32.3187 29.3331 36Z" fill="#664500"/>
<path d="M40 20C39.8346 20 39.6667 19.9693 39.5053 19.904C32.5334 17.116 29.676 12.9173 29.5573 12.7387C29.1479 12.1268 29.3133 11.2987 29.9267 10.8894C30.5386 10.4813 31.364 10.6454 31.7733 11.2548C31.7986 11.2921 34.3466 14.9694 40.4946 17.4281C41.1786 17.7014 41.5119 18.4774 41.2386 19.1614C41.0306 19.6827 40.528 20 40 20Z" fill="#664500"/>
<path d="M8.00013 20C7.47079 20 6.97075 19.6827 6.76145 19.1613C6.48817 18.4773 6.82017 17.7012 7.50407 17.428C13.6534 14.9693 16.2014 11.2919 16.2267 11.2546C16.6373 10.6467 17.4654 10.4853 18.076 10.8946C18.684 11.3053 18.8493 12.1279 18.4427 12.7386C18.324 12.9173 15.4653 17.1159 8.49466 19.9039C8.33212 19.9693 8.16548 20 8.00013 20Z" fill="#664500"/>
<path d="M10.666 46.667L15.9993 46.6057V21.335H10.666V46.667ZM31.9994 21.3336H37.3327V46.667L31.9994 46.6057V21.3336Z" fill="#1EAEFF"/>
<path d="M19.9984 23.9996C19.7984 23.9996 19.5945 23.9542 19.4038 23.8595C14.7211 21.5168 9.97583 23.8342 9.92919 23.8595C9.26919 24.1902 8.47056 23.9208 8.13985 23.2622C7.81056 22.6035 8.07856 21.8022 8.73716 21.4729C8.97985 21.3542 14.7345 18.5448 20.5958 21.4729C21.2545 21.8022 21.5225 22.6035 21.1931 23.2622C20.9584 23.7303 20.4878 23.9996 19.9984 23.9996Z" fill="#664500"/>
<path d="M38.6652 23.9999C38.4651 23.9999 38.2612 23.9546 38.0705 23.8599C33.3866 21.5186 28.6426 23.8346 28.5959 23.8599C27.9372 24.1892 27.1373 23.9226 26.8066 23.2626C26.4773 22.6039 26.7453 21.8026 27.4039 21.4733C27.6452 21.3545 33.4052 18.5452 39.2626 21.4733C39.9213 21.8026 40.1893 22.6039 39.8586 23.2626C39.6252 23.7306 39.1545 23.9999 38.6652 23.9999Z" fill="#664500"/>
<path d="M48 45.3333C48 46.8053 37.2546 48 24 48C10.7454 48 0 46.8054 0 45.3333C0 43.8612 10.7454 42.6666 24 42.6666C37.2546 42.6666 48 43.8613 48 45.3333Z" fill="#1EAEFF"/>
<path d="M27.9997 36.0003C27.9997 38.2096 26.2091 38.667 23.9997 38.667C21.7904 38.667 19.9998 38.2096 19.9998 36.0003C19.9998 33.7909 21.7904 33.3336 23.9997 33.3336C26.2091 33.3336 27.9997 33.7909 27.9997 36.0003Z" fill="#E75A70"/>
</svg>
