<svg width="613" height="261" viewBox="0 0 613 261" fill="none" xmlns="http://www.w3.org/2000/svg">
<g filter="url(#filter0_d)">
<path d="M52.3642 153.103C52.3642 153.316 52.2579 153.422 52.0452 153.422C52.0452 153.422 52.0452 153.528 52.0452 153.741C52.0452 153.954 52.1516 154.06 52.3642 154.06H113.293C114.995 154.06 115.845 153.103 115.845 151.189V62.826C115.845 62.6133 115.739 62.507 115.526 62.507H115.207L52.3642 153.103ZM28.1202 189.15C23.4416 189.15 19.2946 187.449 15.6792 184.046C12.2766 180.643 10.5752 176.496 10.5752 171.605C10.5752 159.696 13.9779 149.062 20.7832 139.705L105.637 18.804C112.443 9.02133 121.906 4.12999 134.028 4.12999H141.046C145.938 4.12999 150.191 5.93766 153.806 9.55298C157.422 13.1683 159.229 17.4217 159.229 22.313V151.189C159.229 153.103 160.08 154.06 161.781 154.06H177.093C181.985 154.06 186.132 155.761 189.534 159.164C192.937 162.567 194.638 166.714 194.638 171.605C194.638 176.496 192.937 180.643 189.534 184.046C186.132 187.449 181.985 189.15 177.093 189.15H161.781C160.08 189.15 159.229 190.107 159.229 192.021V218.817C159.229 223.708 157.422 227.962 153.806 231.577C150.191 235.192 145.938 237 141.046 237H134.028C129.137 237 124.884 235.192 121.268 231.577C117.653 227.962 115.845 223.708 115.845 218.817V192.021C115.845 190.107 114.995 189.15 113.293 189.15H28.1202Z" fill="#16B4F5"/>
<path d="M345.732 54.851C338.501 42.091 327.443 35.711 312.556 35.711C297.669 35.711 286.611 42.091 279.38 54.851C272.149 67.611 268.534 89.5157 268.534 120.565C268.534 151.614 272.149 173.519 279.38 186.279C286.611 199.039 297.669 205.419 312.556 205.419C327.443 205.419 338.501 199.039 345.732 186.279C352.963 173.519 356.578 151.614 356.578 120.565C356.578 89.5157 352.963 67.611 345.732 54.851ZM379.546 211.799C364.872 230.726 342.542 240.19 312.556 240.19C282.57 240.19 260.134 230.726 245.247 211.799C230.573 192.872 223.236 162.46 223.236 120.565C223.236 78.6697 230.573 48.2583 245.247 29.331C260.134 10.4037 282.57 0.939997 312.556 0.939997C342.542 0.939997 364.872 10.4037 379.546 29.331C394.433 48.2583 401.876 78.6697 401.876 120.565C401.876 162.46 394.433 192.872 379.546 211.799Z" fill="#F2C94C"/>
<path d="M460.46 153.103C460.46 153.316 460.354 153.422 460.141 153.422C460.141 153.422 460.141 153.528 460.141 153.741C460.141 153.954 460.247 154.06 460.46 154.06H521.389C523.09 154.06 523.941 153.103 523.941 151.189V62.826C523.941 62.6133 523.835 62.507 523.622 62.507H523.303L460.46 153.103ZM436.216 189.15C431.537 189.15 427.39 187.449 423.775 184.046C420.372 180.643 418.671 176.496 418.671 171.605C418.671 159.696 422.074 149.062 428.879 139.705L513.733 18.804C520.538 9.02133 530.002 4.12999 542.124 4.12999H549.142C554.033 4.12999 558.287 5.93766 561.902 9.55298C565.517 13.1683 567.325 17.4217 567.325 22.313V151.189C567.325 153.103 568.176 154.06 569.877 154.06H585.189C590.08 154.06 594.227 155.761 597.63 159.164C601.033 162.567 602.734 166.714 602.734 171.605C602.734 176.496 601.033 180.643 597.63 184.046C594.227 187.449 590.08 189.15 585.189 189.15H569.877C568.176 189.15 567.325 190.107 567.325 192.021V218.817C567.325 223.708 565.517 227.962 561.902 231.577C558.287 235.192 554.033 237 549.142 237H542.124C537.233 237 532.979 235.192 529.364 231.577C525.749 227.962 523.941 223.708 523.941 218.817V192.021C523.941 190.107 523.09 189.15 521.389 189.15H436.216Z" fill="#EBF4FE"/>
</g>
<defs>
<filter id="filter0_d" x="0.575195" y="0.94043" width="612.159" height="259.25" filterUnits="userSpaceOnUse" color-interpolation-filters="sRGB">
<feFlood flood-opacity="0" result="BackgroundImageFix"/>
<feColorMatrix in="SourceAlpha" type="matrix" values="0 0 0 0 0 0 0 0 0 0 0 0 0 0 0 0 0 0 127 0"/>
<feOffset dy="10"/>
<feGaussianBlur stdDeviation="5"/>
<feColorMatrix type="matrix" values="0 0 0 0 0.536832 0 0 0 0 0.762658 0 0 0 0 0.89083 0 0 0 0.35 0"/>
<feBlend mode="normal" in2="BackgroundImageFix" result="effect1_dropShadow"/>
<feBlend mode="normal" in="SourceGraphic" in2="effect1_dropShadow" result="shape"/>
</filter>
</defs>
</svg>
