<svg width="1774" height="512" viewBox="0 0 1774 512" fill="none" xmlns="http://www.w3.org/2000/svg">
<path fill-rule="evenodd" clip-rule="evenodd" d="M101.998 367.419L101.083 360.667L106.472 364.835L112.582 361.916L110.33 368.323L115.021 373.271L108.241 373.063L105.03 379.039L103.091 372.504L96.416 371.249L101.998 367.419Z" fill="#E24C9D"/>
<path fill-rule="evenodd" clip-rule="evenodd" d="M363.998 300.419L363.083 293.667L368.472 297.835L374.582 294.916L372.33 301.323L377.021 306.271L370.241 306.063L367.03 312.039L365.091 305.504L358.416 304.249L363.998 300.419Z" fill="#1EAEFF"/>
<path fill-rule="evenodd" clip-rule="evenodd" d="M227.53 84.2298L226.65 76.2557L232.872 81.3201L240.148 78.0636L237.31 85.5392L242.686 91.501L234.712 91.0563L230.757 97.9972L228.667 90.2472L220.846 88.5746L227.53 84.2298Z" fill="#DFC550"/>
<path d="M266.889 189.805L267.471 191.366C268.143 193.175 269.569 194.041 271.485 193.808L273.137 193.606C274.557 193.433 275.613 194.075 276.113 195.416L276.693 196.976C277.366 198.784 278.791 199.652 280.707 199.417L282.359 199.216C283.779 199.042 284.836 199.685 285.335 201.025L285.915 202.585C286.588 204.394 288.014 205.261 289.93 205.027L291.581 204.825C293 204.651 294.057 205.295 294.556 206.635L295.136 208.194C295.809 210.002 297.235 210.87 299.151 210.636L300.801 210.434C302.22 210.26 303.277 210.903 303.776 212.244L304.356 213.803C305.03 215.611 306.455 216.478 308.371 216.244L310.022 216.043C310.732 215.956 311.351 216.073 311.855 216.38L313.626 213.469C312.946 213.055 312.11 212.897 311.153 213.014L309.502 213.215C308.082 213.389 307.025 212.747 306.526 211.406L305.946 209.847C305.273 208.037 303.846 207.171 301.931 207.405L300.281 207.606C298.861 207.78 297.804 207.137 297.305 205.797L296.725 204.238C296.052 202.429 294.627 201.561 292.71 201.796L291.059 201.998C289.64 202.171 288.583 201.529 288.084 200.188L287.504 198.628C286.831 196.82 285.405 195.952 283.489 196.186L281.837 196.388C280.417 196.562 279.361 195.919 278.862 194.578L278.282 193.018C277.608 191.21 276.183 190.342 274.267 190.576L272.615 190.778C271.195 190.951 270.138 190.309 269.64 188.969L269.058 187.407C268.722 186.504 268.197 185.835 267.517 185.421C267.508 185.416 267.499 185.412 267.49 185.406L265.719 188.319C266.236 188.624 266.636 189.123 266.889 189.805Z" fill="#2CD2DB"/>
<path d="M220.45 404.528L218.88 405.085C217.062 405.73 216.173 407.143 216.378 409.062L216.555 410.717C216.706 412.139 216.048 413.186 214.7 413.665L213.131 414.221C211.313 414.867 210.424 416.279 210.629 418.198L210.805 419.853C210.958 421.275 210.298 422.322 208.95 422.8L207.382 423.357C205.563 424.003 204.674 425.415 204.879 427.334L205.056 428.988C205.209 430.41 204.549 431.456 203.201 431.936L201.634 432.491C199.816 433.137 198.926 434.55 199.131 436.469L199.308 438.122C199.46 439.544 198.801 440.591 197.453 441.069L195.885 441.625C194.067 442.271 193.178 443.684 193.383 445.603L193.559 447.256C193.635 447.968 193.509 448.585 193.194 449.084L196.078 450.899C196.502 450.226 196.673 449.392 196.571 448.433L196.395 446.779C196.242 445.357 196.901 444.31 198.249 443.831L199.817 443.275C201.636 442.629 202.524 441.216 202.32 439.297L202.143 437.645C201.991 436.222 202.65 435.175 203.998 434.697L205.565 434.141C207.384 433.495 208.273 432.083 208.068 430.163L207.891 428.51C207.739 427.087 208.398 426.041 209.746 425.562L211.315 425.006C213.133 424.36 214.022 422.948 213.817 421.029L213.641 419.374C213.488 417.951 214.147 416.905 215.495 416.426L217.064 415.87C218.883 415.224 219.771 413.812 219.567 411.893L219.39 410.237C219.238 408.816 219.896 407.769 221.245 407.29L222.815 406.733C223.723 406.41 224.4 405.895 224.824 405.222C224.829 405.213 224.834 405.204 224.839 405.196L221.954 403.38C221.64 403.893 221.136 404.284 220.45 404.528Z" fill="#2CD2DB"/>
<g filter="url(#filter0_d)">
<path d="M358.987 47.6621L360.647 47.5172C362.569 47.3503 363.784 46.2061 364.069 44.2977L364.314 42.6509C364.525 41.2364 365.425 40.3889 366.85 40.2645L368.508 40.1201C370.43 39.9526 371.646 38.8095 371.93 36.9005L372.176 35.2543C372.386 33.8392 373.287 32.9923 374.712 32.8679L376.37 32.7236C378.293 32.5559 379.508 31.4127 379.792 29.5032L380.037 27.8584C380.247 26.4436 381.148 25.5965 382.573 25.4716L384.23 25.3277C386.152 25.1605 387.368 24.0165 387.653 22.1075L387.897 20.4632C388.108 19.0489 389.008 18.2009 390.434 18.0767L392.091 17.9326C394.013 17.765 395.228 16.6212 395.513 14.7124L395.758 13.0673C395.863 12.3598 396.141 11.7943 396.571 11.3901L394.236 8.9082C393.656 9.45362 393.281 10.2172 393.139 11.1714L392.894 12.8166C392.683 14.2311 391.783 15.0789 390.357 15.2032L388.7 15.3475C386.777 15.5149 385.563 16.6595 385.278 18.5681L385.033 20.2119C384.823 21.627 383.922 22.4746 382.497 22.599L380.84 22.7428C378.917 22.9107 377.702 24.0537 377.418 25.9634L377.173 27.6082C376.962 29.023 376.062 29.8704 374.636 29.9947L372.978 30.139C371.056 30.3067 369.84 31.4499 369.556 33.3588L369.311 35.005C369.1 36.4203 368.2 37.2673 366.775 37.3912L365.117 37.5357C363.194 37.7032 361.979 38.8467 361.694 40.7555L361.449 42.4023C361.238 43.8163 360.338 44.6644 358.913 44.7883L357.253 44.9332C356.293 45.0173 355.508 45.345 354.929 45.8902C354.921 45.8972 354.915 45.9051 354.907 45.912L357.243 48.3948C357.676 47.9775 358.263 47.7251 358.987 47.6621Z" fill="#2CD2DB"/>
</g>
<g filter="url(#filter1_d)">
<path d="M18.6042 217.772L19.5392 216.393C20.6229 214.797 20.5021 213.132 19.2012 211.707L18.0785 210.478C17.1142 209.422 17.0253 208.188 17.828 207.004L18.7623 205.627C19.8452 204.03 19.726 202.365 18.4243 200.94L17.302 199.711C16.3369 198.655 16.2488 197.422 17.0515 196.238L17.9858 194.861C19.0691 193.263 18.9495 191.599 17.6473 190.174L16.526 188.946C15.5609 187.89 15.4728 186.656 16.275 185.472L17.209 184.096C18.2923 182.499 18.1722 180.834 16.8709 179.409L15.7496 178.182C14.7854 177.126 14.696 175.892 15.4991 174.708L16.4331 173.331C17.5163 171.734 17.3959 170.07 16.0946 168.645L14.9732 167.416C14.4907 166.888 14.2274 166.316 14.1849 165.728L10.7861 165.973C10.8434 166.767 11.1993 167.539 11.8497 168.252L12.9711 169.48C13.9357 170.536 14.0251 171.769 13.222 172.954L12.2881 174.33C11.2044 175.928 11.3257 177.592 12.6266 179.018L13.7474 180.244C14.7121 181.301 14.8011 182.535 13.9984 183.719L13.0644 185.095C11.9812 186.692 12.1008 188.356 13.4029 189.782L14.5243 191.01C15.4889 192.066 15.5779 193.299 14.7748 194.484L13.8405 195.861C12.7576 197.458 12.8772 199.122 14.1785 200.547L15.3008 201.776C16.2659 202.833 16.3544 204.066 15.5513 205.25L14.617 206.627C13.5337 208.224 13.6537 209.889 14.955 211.314L16.0777 212.543C17.0415 213.599 17.1313 214.833 16.3282 216.016L15.3931 217.395C14.8521 218.193 14.6112 219.009 14.6685 219.802C14.6692 219.813 14.6712 219.823 14.6719 219.833L18.072 219.587C18.0211 218.989 18.1958 218.374 18.6042 217.772Z" fill="#2CD2DB"/>
</g>
<g filter="url(#filter2_d)">
<path d="M441.458 405.203L443.058 405.67C444.91 406.212 446.457 405.587 447.415 403.912L448.241 402.467C448.951 401.225 450.098 400.762 451.47 401.164L453.068 401.631C454.919 402.172 456.468 401.549 457.425 399.873L458.251 398.428C458.961 397.186 460.108 396.724 461.481 397.125L463.078 397.592C464.93 398.134 466.478 397.51 467.436 395.834L468.261 394.39C468.97 393.148 470.117 392.686 471.491 393.086L473.087 393.554C474.938 394.096 476.487 393.471 477.445 391.796L478.269 390.352C478.979 389.111 480.126 388.647 481.499 389.049L483.095 389.516C484.948 390.058 486.495 389.433 487.453 387.758L488.278 386.314C488.633 385.693 489.097 385.267 489.644 385.046L488.369 381.886C487.631 382.184 487.005 382.759 486.526 383.597L485.7 385.04C484.991 386.282 483.844 386.745 482.471 386.344L480.874 385.877C479.022 385.335 477.474 385.96 476.516 387.635L475.692 389.078C474.982 390.32 473.835 390.783 472.462 390.382L470.866 389.915C469.013 389.373 467.466 389.997 466.508 391.673L465.683 393.117C464.973 394.359 463.826 394.822 462.453 394.42L460.856 393.953C459.004 393.412 457.456 394.035 456.498 395.711L455.672 397.156C454.962 398.398 453.816 398.861 452.443 398.459L450.845 397.992C448.993 397.45 447.446 398.074 446.488 399.75L445.662 401.195C444.952 402.436 443.805 402.9 442.432 402.498L440.833 402.03C439.908 401.76 439.058 401.781 438.32 402.078C438.31 402.082 438.301 402.087 438.292 402.091L439.567 405.252C440.122 405.02 440.76 404.998 441.458 405.203Z" fill="#2CD2DB"/>
</g>
<path fill-rule="evenodd" clip-rule="evenodd" d="M1659 187.419L1658.08 180.667L1663.47 184.835L1669.58 181.916L1667.33 188.323L1672.02 193.271L1665.24 193.063L1662.03 199.039L1660.09 192.504L1653.42 191.249L1659 187.419Z" fill="#E24C9D"/>
<path fill-rule="evenodd" clip-rule="evenodd" d="M1260 11.4186L1259.08 4.66678L1264.47 8.83499L1270.58 5.91588L1268.33 12.3232L1273.02 17.2711L1266.24 17.0625L1263.03 23.0394L1261.09 16.5036L1254.42 15.2491L1260 11.4186Z" fill="#E24C9D"/>
<path fill-rule="evenodd" clip-rule="evenodd" d="M1301.53 302.23L1300.65 294.256L1306.87 299.32L1314.15 296.064L1311.31 303.539L1316.69 309.501L1308.71 309.056L1304.76 315.997L1302.67 308.247L1294.85 306.575L1301.53 302.23Z" fill="#DFC550"/>
<g filter="url(#filter3_d)">
<path d="M1674.92 12.5898L1676.32 13.4937C1677.94 14.5415 1679.6 14.3833 1681 13.051L1682.2 11.901C1683.23 10.9133 1684.47 10.7968 1685.67 11.5728L1687.07 12.476C1688.69 13.5229 1690.35 13.3664 1691.74 12.0332L1692.95 10.8837C1693.98 9.8952 1695.21 9.77948 1696.41 10.5555L1697.81 11.4588C1699.43 12.506 1701.09 12.3491 1702.49 11.0155L1703.69 9.86688C1704.73 8.87844 1705.96 8.76271 1707.16 9.53823L1708.56 10.4412C1710.18 11.4885 1711.84 11.3312 1713.23 9.9983L1714.44 8.8498C1715.47 7.86219 1716.7 7.74518 1717.9 8.52158L1719.3 9.42449C1720.92 10.4717 1722.58 10.3141 1723.98 8.98124L1725.18 7.83262C1725.7 7.33838 1726.26 7.06233 1726.85 7.00674L1726.53 3.61426C1725.74 3.68927 1724.97 4.06234 1724.28 4.72854L1723.07 5.87716C1722.04 6.86518 1720.81 6.98216 1719.61 6.20579L1718.21 5.30289C1716.59 4.25523 1714.93 4.41379 1713.53 5.74621L1712.33 6.89426C1711.29 7.88236 1710.06 7.99894 1708.86 7.22295L1707.46 6.31999C1705.84 5.27277 1704.18 5.4296 1702.79 6.76331L1701.58 7.91188C1700.55 8.89994 1699.32 9.01648 1698.12 8.24011L1696.72 7.33683C1695.1 6.28998 1693.44 6.44682 1692.04 7.77966L1690.84 8.92919C1689.8 9.91769 1688.57 10.0338 1687.37 9.25737L1685.97 8.35412C1684.35 7.30686 1682.69 7.46413 1681.29 8.79695L1680.09 9.94694C1679.06 10.9341 1677.83 11.0515 1676.62 10.2751L1675.22 9.37114C1674.41 8.84812 1673.59 8.62552 1672.8 8.70051C1672.79 8.70147 1672.78 8.7037 1672.77 8.70466L1673.09 12.0984C1673.69 12.0341 1674.31 12.195 1674.92 12.5898Z" fill="#2CD2DB"/>
</g>
<g filter="url(#filter4_d)">
<path d="M1439.32 430.959L1439.56 429.31C1439.83 427.4 1438.99 425.957 1437.2 425.248L1435.65 424.636C1434.32 424.111 1433.7 423.041 1433.9 421.625L1434.13 419.978C1434.41 418.068 1433.57 416.624 1431.77 415.915L1430.23 415.304C1428.89 414.779 1428.27 413.709 1428.47 412.293L1428.71 410.645C1428.98 408.735 1428.14 407.292 1426.35 406.583L1424.8 405.972C1423.47 405.447 1422.85 404.377 1423.05 402.961L1423.29 401.315C1423.56 399.405 1422.72 397.961 1420.92 397.252L1419.38 396.641C1418.05 396.116 1417.43 395.047 1417.63 393.63L1417.86 391.984C1418.14 390.073 1417.3 388.63 1415.5 387.921L1413.95 387.31C1413.29 387.047 1412.8 386.649 1412.5 386.139L1409.56 387.851C1409.96 388.539 1410.62 389.077 1411.51 389.432L1413.06 390.043C1414.39 390.568 1415.01 391.637 1414.81 393.054L1414.58 394.701C1414.3 396.612 1415.14 398.054 1416.94 398.764L1418.48 399.374C1419.82 399.9 1420.44 400.969 1420.24 402.385L1420 404.031C1419.73 405.942 1420.57 407.385 1422.36 408.094L1423.91 408.705C1425.24 409.231 1425.86 410.3 1425.66 411.716L1425.42 413.364C1425.15 415.274 1425.99 416.717 1427.79 417.426L1429.33 418.038C1430.66 418.563 1431.29 419.632 1431.08 421.048L1430.85 422.696C1430.58 424.607 1431.42 426.049 1433.21 426.759L1434.76 427.37C1436.09 427.896 1436.71 428.965 1436.51 430.381L1436.27 432.03C1436.14 432.985 1436.28 433.823 1436.68 434.511C1436.68 434.52 1436.69 434.528 1436.7 434.537L1439.64 432.824C1439.33 432.308 1439.22 431.679 1439.32 430.959Z" fill="#2CD2DB"/>
</g>
<g filter="url(#filter5_d)">
<path d="M1762.22 273.069L1761.09 271.845C1759.78 270.427 1758.13 270.167 1756.45 271.11L1755 271.925C1753.75 272.624 1752.53 272.431 1751.56 271.38L1750.43 270.158C1749.12 268.741 1747.47 268.479 1745.79 269.423L1744.34 270.238C1743.09 270.938 1741.87 270.744 1740.9 269.693L1739.77 268.471C1738.46 267.053 1736.81 266.792 1735.13 267.736L1733.68 268.55C1732.43 269.25 1731.21 269.056 1730.24 268.006L1729.11 266.784C1727.8 265.367 1726.15 265.106 1724.47 266.049L1723.02 266.863C1721.77 267.562 1720.55 267.369 1719.58 266.318L1718.45 265.096C1717.14 263.679 1715.49 263.419 1713.81 264.362L1712.36 265.176C1711.73 265.526 1711.12 265.652 1710.53 265.56L1710 268.926C1710.79 269.05 1711.62 268.879 1712.46 268.407L1713.91 267.594C1715.16 266.894 1716.38 267.087 1717.35 268.138L1718.48 269.36C1719.79 270.778 1721.44 271.038 1723.12 270.094L1724.57 269.281C1725.82 268.581 1727.04 268.775 1728.01 269.825L1729.14 271.047C1730.45 272.465 1732.1 272.726 1733.78 271.781L1735.23 270.968C1736.48 270.268 1737.7 270.461 1738.67 271.512L1739.8 272.735C1741.11 274.152 1742.76 274.413 1744.44 273.469L1745.89 272.655C1747.14 271.955 1748.36 272.149 1749.33 273.2L1750.46 274.422C1751.77 275.84 1753.42 276.1 1755.1 275.157L1756.56 274.342C1757.8 273.643 1759.02 273.836 1760 274.887L1761.13 276.11C1761.78 276.818 1762.52 277.238 1763.31 277.362C1763.32 277.364 1763.33 277.364 1763.34 277.366L1763.87 273.999C1763.27 273.912 1762.72 273.603 1762.22 273.069Z" fill="#2CD2DB"/>
</g>
<g filter="url(#filter6_d)">
<path d="M1157.98 491.028L1159.61 490.671C1161.49 490.26 1162.55 488.969 1162.59 487.04L1162.62 485.376C1162.65 483.946 1163.44 482.99 1164.83 482.684L1166.46 482.329C1168.34 481.917 1169.4 480.627 1169.44 478.697L1169.47 477.033C1169.5 475.603 1170.29 474.648 1171.68 474.342L1173.31 473.987C1175.19 473.574 1176.25 472.285 1176.29 470.355L1176.32 468.692C1176.35 467.262 1177.14 466.306 1178.53 466L1180.16 465.645C1182.04 465.233 1183.1 463.943 1183.14 462.013L1183.17 460.351C1183.2 458.922 1183.98 457.966 1185.38 457.66L1187.01 457.305C1188.89 456.892 1189.95 455.602 1189.99 453.673L1190.02 452.01C1190.03 451.295 1190.24 450.698 1190.61 450.243L1187.98 448.08C1187.47 448.695 1187.2 449.501 1187.18 450.465L1187.15 452.128C1187.12 453.558 1186.34 454.514 1184.94 454.82L1183.31 455.175C1181.43 455.587 1180.37 456.878 1180.33 458.807L1180.3 460.469C1180.27 461.899 1179.49 462.855 1178.09 463.161L1176.46 463.516C1174.58 463.928 1173.52 465.218 1173.48 467.148L1173.45 468.811C1173.42 470.241 1172.64 471.196 1171.24 471.502L1169.61 471.858C1167.73 472.27 1166.67 473.559 1166.63 475.489L1166.6 477.153C1166.57 478.584 1165.79 479.539 1164.39 479.844L1162.76 480.2C1160.88 480.612 1159.82 481.902 1159.78 483.831L1159.75 485.496C1159.72 486.925 1158.94 487.882 1157.54 488.187L1155.91 488.543C1154.97 488.749 1154.23 489.175 1153.73 489.79C1153.72 489.798 1153.72 489.806 1153.71 489.814L1156.35 491.977C1156.72 491.508 1157.27 491.183 1157.98 491.028Z" fill="#2CD2DB"/>
</g>
<g filter="url(#filter7_d)">
<path d="M1364.66 57.2121L1364.5 58.87C1364.31 60.7903 1365.21 62.1955 1367.03 62.8275L1368.6 63.3724C1369.95 63.8407 1370.62 64.8824 1370.48 66.3058L1370.31 67.962C1370.12 69.8818 1371.02 71.288 1372.85 71.9196L1374.42 72.4644C1375.77 72.9322 1376.44 73.9744 1376.3 75.3977L1376.13 77.0538C1375.94 78.9744 1376.84 80.3802 1378.67 81.0117L1380.24 81.5561C1381.59 82.0235 1382.26 83.0659 1382.11 84.4893L1381.95 86.1443C1381.76 88.0643 1382.66 89.4705 1384.48 90.1026L1386.05 90.6462C1387.41 91.1143 1388.07 92.156 1387.93 93.5797L1387.77 95.235C1387.58 97.1554 1388.48 98.5608 1390.3 99.1926L1391.87 99.7373C1392.55 99.9712 1393.05 100.349 1393.37 100.846L1396.24 99.0088C1395.81 98.3384 1395.13 97.8291 1394.22 97.5131L1392.65 96.9684C1391.3 96.5007 1390.63 95.4592 1390.77 94.0353L1390.93 92.3799C1391.12 90.459 1390.22 89.0539 1388.4 88.4217L1386.83 87.8781C1385.48 87.4097 1384.81 86.3677 1384.95 84.9444L1385.12 83.2895C1385.31 81.3687 1384.41 79.9631 1382.58 79.3314L1381.01 78.787C1379.66 78.319 1378.99 77.2774 1379.13 75.8535L1379.3 74.1975C1379.49 72.2775 1378.59 70.8716 1376.77 70.2397L1375.19 69.6949C1373.84 69.2269 1373.18 68.1851 1373.32 66.7617L1373.48 65.1055C1373.67 63.1851 1372.77 61.7795 1370.95 61.1477L1369.37 60.6028C1368.02 60.1345 1367.36 59.0932 1367.5 57.6698L1367.66 56.0118C1367.76 55.0522 1367.58 54.2206 1367.15 53.5504C1367.15 53.5418 1367.14 53.5339 1367.13 53.5254L1364.26 55.3628C1364.59 55.8649 1364.73 56.4884 1364.66 57.2121Z" fill="#2CD2DB"/>
</g>
<defs>
<filter id="filter0_d" x="344.907" y="8.9082" width="61.6634" height="59.4866" filterUnits="userSpaceOnUse" color-interpolation-filters="sRGB">
<feFlood flood-opacity="0" result="BackgroundImageFix"/>
<feColorMatrix in="SourceAlpha" type="matrix" values="0 0 0 0 0 0 0 0 0 0 0 0 0 0 0 0 0 0 127 0"/>
<feOffset dy="10"/>
<feGaussianBlur stdDeviation="5"/>
<feColorMatrix type="matrix" values="0 0 0 0 0.536832 0 0 0 0 0.762658 0 0 0 0 0.89083 0 0 0 0.35 0"/>
<feBlend mode="normal" in2="BackgroundImageFix" result="effect1_dropShadow"/>
<feBlend mode="normal" in="SourceGraphic" in2="effect1_dropShadow" result="shape"/>
</filter>
<filter id="filter1_d" x="0.786133" y="165.728" width="29.4866" height="74.1051" filterUnits="userSpaceOnUse" color-interpolation-filters="sRGB">
<feFlood flood-opacity="0" result="BackgroundImageFix"/>
<feColorMatrix in="SourceAlpha" type="matrix" values="0 0 0 0 0 0 0 0 0 0 0 0 0 0 0 0 0 0 127 0"/>
<feOffset dy="10"/>
<feGaussianBlur stdDeviation="5"/>
<feColorMatrix type="matrix" values="0 0 0 0 0.536832 0 0 0 0 0.762658 0 0 0 0 0.89083 0 0 0 0.35 0"/>
<feBlend mode="normal" in2="BackgroundImageFix" result="effect1_dropShadow"/>
<feBlend mode="normal" in="SourceGraphic" in2="effect1_dropShadow" result="shape"/>
</filter>
<filter id="filter2_d" x="428.292" y="381.886" width="71.3524" height="43.9747" filterUnits="userSpaceOnUse" color-interpolation-filters="sRGB">
<feFlood flood-opacity="0" result="BackgroundImageFix"/>
<feColorMatrix in="SourceAlpha" type="matrix" values="0 0 0 0 0 0 0 0 0 0 0 0 0 0 0 0 0 0 127 0"/>
<feOffset dy="10"/>
<feGaussianBlur stdDeviation="5"/>
<feColorMatrix type="matrix" values="0 0 0 0 0.536832 0 0 0 0 0.762658 0 0 0 0 0.89083 0 0 0 0.35 0"/>
<feBlend mode="normal" in2="BackgroundImageFix" result="effect1_dropShadow"/>
<feBlend mode="normal" in="SourceGraphic" in2="effect1_dropShadow" result="shape"/>
</filter>
<filter id="filter3_d" x="1662.77" y="3.61426" width="74.0807" height="30.5648" filterUnits="userSpaceOnUse" color-interpolation-filters="sRGB">
<feFlood flood-opacity="0" result="BackgroundImageFix"/>
<feColorMatrix in="SourceAlpha" type="matrix" values="0 0 0 0 0 0 0 0 0 0 0 0 0 0 0 0 0 0 127 0"/>
<feOffset dy="10"/>
<feGaussianBlur stdDeviation="5"/>
<feColorMatrix type="matrix" values="0 0 0 0 0.536832 0 0 0 0 0.762658 0 0 0 0 0.89083 0 0 0 0.35 0"/>
<feBlend mode="normal" in2="BackgroundImageFix" result="effect1_dropShadow"/>
<feBlend mode="normal" in="SourceGraphic" in2="effect1_dropShadow" result="shape"/>
</filter>
<filter id="filter4_d" x="1399.56" y="386.139" width="50.0843" height="68.3984" filterUnits="userSpaceOnUse" color-interpolation-filters="sRGB">
<feFlood flood-opacity="0" result="BackgroundImageFix"/>
<feColorMatrix in="SourceAlpha" type="matrix" values="0 0 0 0 0 0 0 0 0 0 0 0 0 0 0 0 0 0 127 0"/>
<feOffset dy="10"/>
<feGaussianBlur stdDeviation="5"/>
<feColorMatrix type="matrix" values="0 0 0 0 0.536832 0 0 0 0 0.762658 0 0 0 0 0.89083 0 0 0 0.35 0"/>
<feBlend mode="normal" in2="BackgroundImageFix" result="effect1_dropShadow"/>
<feBlend mode="normal" in="SourceGraphic" in2="effect1_dropShadow" result="shape"/>
</filter>
<filter id="filter5_d" x="1700" y="263.805" width="73.8692" height="33.5611" filterUnits="userSpaceOnUse" color-interpolation-filters="sRGB">
<feFlood flood-opacity="0" result="BackgroundImageFix"/>
<feColorMatrix in="SourceAlpha" type="matrix" values="0 0 0 0 0 0 0 0 0 0 0 0 0 0 0 0 0 0 127 0"/>
<feOffset dy="10"/>
<feGaussianBlur stdDeviation="5"/>
<feColorMatrix type="matrix" values="0 0 0 0 0.536832 0 0 0 0 0.762658 0 0 0 0 0.89083 0 0 0 0.35 0"/>
<feBlend mode="normal" in2="BackgroundImageFix" result="effect1_dropShadow"/>
<feBlend mode="normal" in="SourceGraphic" in2="effect1_dropShadow" result="shape"/>
</filter>
<filter id="filter6_d" x="1143.71" y="448.08" width="56.9011" height="63.8974" filterUnits="userSpaceOnUse" color-interpolation-filters="sRGB">
<feFlood flood-opacity="0" result="BackgroundImageFix"/>
<feColorMatrix in="SourceAlpha" type="matrix" values="0 0 0 0 0 0 0 0 0 0 0 0 0 0 0 0 0 0 127 0"/>
<feOffset dy="10"/>
<feGaussianBlur stdDeviation="5"/>
<feColorMatrix type="matrix" values="0 0 0 0 0.536832 0 0 0 0 0.762658 0 0 0 0 0.89083 0 0 0 0.35 0"/>
<feBlend mode="normal" in2="BackgroundImageFix" result="effect1_dropShadow"/>
<feBlend mode="normal" in="SourceGraphic" in2="effect1_dropShadow" result="shape"/>
</filter>
<filter id="filter7_d" x="1354.26" y="53.5254" width="51.9791" height="67.3202" filterUnits="userSpaceOnUse" color-interpolation-filters="sRGB">
<feFlood flood-opacity="0" result="BackgroundImageFix"/>
<feColorMatrix in="SourceAlpha" type="matrix" values="0 0 0 0 0 0 0 0 0 0 0 0 0 0 0 0 0 0 127 0"/>
<feOffset dy="10"/>
<feGaussianBlur stdDeviation="5"/>
<feColorMatrix type="matrix" values="0 0 0 0 0.536832 0 0 0 0 0.762658 0 0 0 0 0.89083 0 0 0 0.35 0"/>
<feBlend mode="normal" in2="BackgroundImageFix" result="effect1_dropShadow"/>
<feBlend mode="normal" in="SourceGraphic" in2="effect1_dropShadow" result="shape"/>
</filter>
</defs>
</svg>
