<svg width="829" height="505" viewBox="0 0 829 505" fill="none" xmlns="http://www.w3.org/2000/svg">
<path fill-rule="evenodd" clip-rule="evenodd" d="M201.225 371H627.775C608.19 270.895 520.148 195.366 414.5 195.366C308.852 195.366 220.81 270.895 201.225 371Z" fill="#EDF2F4"/>
<path d="M665.68 367.277C641.524 250.348 538.273 162.544 414.5 162.544C290.727 162.544 187.476 250.348 163.32 367.277" stroke="#C7CCD4" stroke-miterlimit="10" stroke-dasharray="2 2"/>
<path d="M790.951 370.253C752.752 184.852 609.076 38.123 413.347 38.123C217.618 38.123 75.0951 184.852 36.8958 370.253" stroke="#C7CCD4" stroke-miterlimit="10" stroke-dasharray="2 2"/>
<path d="M414.286 179.677C423.731 179.677 431.388 172.007 431.388 162.545C431.388 153.083 423.731 145.412 414.286 145.412C404.841 145.412 397.185 153.083 397.185 162.545C397.185 172.007 404.841 179.677 414.286 179.677Z" fill="white" stroke="white" stroke-miterlimit="10" stroke-linecap="round" stroke-linejoin="round"/>
<path d="M414.286 171.111C419.009 171.111 422.837 167.276 422.837 162.545C422.837 157.814 419.009 153.979 414.286 153.979C409.564 153.979 405.735 157.814 405.735 162.545C405.735 167.276 409.564 171.111 414.286 171.111Z" fill="#C6DDEA"/>
<path d="M163.32 384.409C172.765 384.409 180.422 376.739 180.422 367.277C180.422 357.815 172.765 350.145 163.32 350.145C153.875 350.145 146.219 357.815 146.219 367.277C146.219 376.739 153.875 384.409 163.32 384.409Z" fill="white" stroke="white" stroke-miterlimit="10" stroke-linecap="round" stroke-linejoin="round"/>
<path d="M163.32 375.843C168.043 375.843 171.871 372.008 171.871 367.277C171.871 362.546 168.043 358.711 163.32 358.711C158.598 358.711 154.77 362.546 154.77 367.277C154.77 372.008 158.598 375.843 163.32 375.843Z" fill="#C6DDEA"/>
<path d="M665.68 384.409C675.125 384.409 682.781 376.739 682.781 367.277C682.781 357.815 675.125 350.145 665.68 350.145C656.235 350.145 648.578 357.815 648.578 367.277C648.578 376.739 656.235 384.409 665.68 384.409Z" fill="white" stroke="white" stroke-miterlimit="10" stroke-linecap="round" stroke-linejoin="round"/>
<path d="M665.68 375.843C670.402 375.843 674.23 372.008 674.23 367.277C674.23 362.546 670.402 358.711 665.68 358.711C660.957 358.711 657.129 362.546 657.129 367.277C657.129 372.008 660.957 375.843 665.68 375.843Z" fill="#C6DDEA"/>
<path d="M246.69 240.925C256.135 240.925 263.792 233.255 263.792 223.793C263.792 214.331 256.135 206.66 246.69 206.66C237.246 206.66 229.589 214.331 229.589 223.793C229.589 233.255 237.246 240.925 246.69 240.925Z" fill="white" stroke="white" stroke-miterlimit="10" stroke-linecap="round" stroke-linejoin="round"/>
<path d="M246.69 232.359C251.413 232.359 255.241 228.524 255.241 223.793C255.241 219.062 251.413 215.227 246.69 215.227C241.968 215.227 238.14 219.062 238.14 223.793C238.14 228.524 241.968 232.359 246.69 232.359Z" fill="#C6DDEA"/>
<path d="M582.523 240.925C591.968 240.925 599.625 233.255 599.625 223.793C599.625 214.331 591.968 206.66 582.523 206.66C573.078 206.66 565.422 214.331 565.422 223.793C565.422 233.255 573.078 240.925 582.523 240.925Z" fill="white" stroke="white" stroke-miterlimit="10" stroke-linecap="round" stroke-linejoin="round"/>
<path d="M582.523 232.359C587.246 232.359 591.074 228.524 591.074 223.793C591.074 219.062 587.246 215.227 582.523 215.227C577.801 215.227 573.972 219.062 573.972 223.793C573.972 228.524 577.801 232.359 582.523 232.359Z" fill="#C6DDEA"/>
<path d="M146.219 367.277H85.0803" stroke="#C7CCD4" stroke-miterlimit="10" stroke-dasharray="2 2"/>
<path d="M234.078 212.228L191.751 181.176" stroke="#C7CCD4" stroke-miterlimit="10" stroke-dasharray="2 2"/>
<path d="M682.354 367.277H743.492" stroke="#C7CCD4" stroke-miterlimit="10" stroke-dasharray="2 2"/>
<path d="M594.281 212.228L636.821 181.176" stroke="#C7CCD4" stroke-miterlimit="10" stroke-dasharray="2 2"/>
<path d="M414.286 145.412V85.4482" stroke="#C7CCD4" stroke-miterlimit="10" stroke-dasharray="2 2"/>
<g filter="url(#filter0_d)">
<path d="M333.884 306.239L414.05 346.592L494.216 306.239V392.324L414.05 432.676L333.884 392.323V306.239Z" fill="#DB5449"/>
<path d="M333.884 314.31V339.462L413.783 378.873L494.215 339.328V314.31L414.05 353.855L333.884 314.31Z" fill="#C54B42"/>
<path d="M414.05 432.676V346.592L339.228 308.93H333.884V392.324L414.05 432.676Z" fill="#D05045"/>
<path d="M333.884 314.31V339.462L413.783 378.873L414.05 378.738V353.72V353.855L333.884 314.31Z" fill="#BB483E"/>
<path d="M328.54 303.415L414.05 260.507L499.56 303.415V309.064L414.05 351.971L328.54 309.198V303.415Z" fill="#EB6258"/>
<path d="M463.085 274.092C460.279 268.981 454.266 265.887 447.185 265.887C431.018 265.887 419.661 281.086 414.05 290.771C408.438 281.086 396.948 266.021 380.914 266.021C370.627 266.021 363.278 272.343 363.278 280.952C363.278 296.285 379.979 306.239 413.515 306.239C447.051 306.239 464.821 293.461 464.821 281.086C464.821 278.665 464.287 276.244 463.085 274.092ZM384.389 290.637C380.647 288.081 379.311 285.256 379.311 283.373C379.311 281.087 381.449 279.338 384.522 279.338C391.737 279.338 397.482 288.888 400.689 295.479C392.272 294.806 387.328 292.519 384.389 290.637ZM443.711 290.637C440.771 292.52 435.828 294.806 427.411 295.479C430.484 288.888 436.229 279.338 443.577 279.338C446.65 279.338 448.788 281.086 448.788 283.373C448.788 285.256 447.452 288.081 443.711 290.637Z" fill="white"/>
<path d="M328.54 303.549L414.05 345.65L499.56 303.549V331.392L413.783 373.493L328.54 331.392V303.549Z" fill="#E2574C"/>
<path d="M446.116 333.544V330.451L414.05 312.965L381.984 330.451V333.544L360.606 324.129V319.824L412.981 291.981L414.05 292.519L415.119 291.981L467.494 319.69V323.994L446.116 333.544Z" fill="white"/>
<path d="M446.116 330.45V416.4L467.494 405.64V319.689L446.116 330.45Z" fill="white"/>
<path d="M360.606 405.774L381.983 416.535V330.585L360.606 319.689C360.606 319.689 360.606 405.774 360.606 405.774Z" fill="white"/>
</g>
<path d="M360.546 481.246H369.07V485H354.601V482.164L362.802 471.336H354.842V467.565H368.813V470.321L360.546 481.246ZM377.561 485H372.889V467.565H377.561V485ZM372.615 463.054C372.615 462.355 372.846 461.781 373.308 461.33C373.78 460.878 374.419 460.653 375.225 460.653C376.02 460.653 376.654 460.878 377.126 461.33C377.599 461.781 377.835 462.355 377.835 463.054C377.835 463.763 377.594 464.343 377.11 464.794C376.638 465.245 376.009 465.471 375.225 465.471C374.441 465.471 373.807 465.245 373.324 464.794C372.851 464.343 372.615 463.763 372.615 463.054Z" fill="#0085E8"/>
<path d="M400.941 482.035C400.071 483.077 398.841 483.888 397.251 484.468C395.661 485.038 393.9 485.322 391.966 485.322C389.936 485.322 388.153 484.882 386.616 484.001C385.091 483.109 383.909 481.82 383.072 480.134C382.244 478.447 381.82 476.465 381.799 474.188V472.593C381.799 470.251 382.191 468.226 382.975 466.518C383.77 464.799 384.908 463.489 386.391 462.586C387.884 461.673 389.63 461.217 391.628 461.217C394.41 461.217 396.585 461.883 398.154 463.215C399.722 464.536 400.651 466.464 400.941 469H396.236C396.021 467.657 395.543 466.674 394.802 466.051C394.072 465.428 393.062 465.116 391.773 465.116C390.129 465.116 388.878 465.734 388.018 466.969C387.159 468.205 386.724 470.042 386.713 472.48V473.979C386.713 476.438 387.18 478.297 388.115 479.554C389.05 480.811 390.419 481.439 392.224 481.439C394.039 481.439 395.334 481.052 396.107 480.279V476.234H391.708V472.673H400.941V482.035ZM410.673 485H405.839V461.539H410.673V485ZM429.944 475.413H420.663V485H415.829V461.539H431.104V465.455H420.663V471.513H429.944V475.413ZM452.55 465.455H445.364V485H440.53V465.455H433.44V461.539H452.55V465.455ZM467.889 478.845C467.889 477.932 467.567 477.233 466.922 476.75C466.278 476.256 465.118 475.74 463.442 475.203C461.766 474.655 460.44 474.118 459.462 473.592C456.798 472.152 455.466 470.213 455.466 467.775C455.466 466.507 455.82 465.379 456.529 464.391C457.249 463.392 458.275 462.613 459.607 462.055C460.95 461.496 462.454 461.217 464.119 461.217C465.795 461.217 467.288 461.523 468.598 462.135C469.909 462.737 470.924 463.591 471.644 464.697C472.374 465.804 472.739 467.061 472.739 468.468H467.905C467.905 467.394 467.567 466.561 466.89 465.97C466.213 465.369 465.263 465.068 464.038 465.068C462.857 465.068 461.938 465.32 461.283 465.825C460.628 466.319 460.3 466.975 460.3 467.791C460.3 468.554 460.681 469.193 461.444 469.708C462.217 470.224 463.351 470.708 464.844 471.159C467.594 471.986 469.597 473.012 470.854 474.236C472.111 475.461 472.739 476.986 472.739 478.812C472.739 480.843 471.971 482.438 470.435 483.598C468.899 484.748 466.831 485.322 464.232 485.322C462.427 485.322 460.783 484.995 459.301 484.339C457.818 483.673 456.685 482.766 455.901 481.616C455.128 480.467 454.741 479.135 454.741 477.62H459.591C459.591 480.209 461.138 481.503 464.232 481.503C465.381 481.503 466.278 481.272 466.922 480.811C467.567 480.338 467.889 479.683 467.889 478.845Z" fill="#283138"/>
<defs>
<filter id="filter0_d" x="313.54" y="255.507" width="201.021" height="202.169" filterUnits="userSpaceOnUse" color-interpolation-filters="sRGB">
<feFlood flood-opacity="0" result="BackgroundImageFix"/>
<feColorMatrix in="SourceAlpha" type="matrix" values="0 0 0 0 0 0 0 0 0 0 0 0 0 0 0 0 0 0 127 0"/>
<feOffset dy="10"/>
<feGaussianBlur stdDeviation="7.5"/>
<feColorMatrix type="matrix" values="0 0 0 0 0 0 0 0 0 0 0 0 0 0 0 0 0 0 0.1 0"/>
<feBlend mode="normal" in2="BackgroundImageFix" result="effect1_dropShadow"/>
<feBlend mode="normal" in="SourceGraphic" in2="effect1_dropShadow" result="shape"/>
</filter>
</defs>
</svg>
