<svg width="309" height="82" viewBox="0 0 309 82" fill="none" xmlns="http://www.w3.org/2000/svg">
<path d="M95.9099 56.7962H112.053V63.9903H84.7046V58.6894L100.278 38.2429H85.0844V31.0488H111.673V36.3498L95.9099 56.7962Z" fill="#0085E8"/>
<path d="M128.196 63.9888H119.269V31.0474H128.196V63.9888ZM118.89 22.528C118.89 21.2028 119.269 20.0669 120.219 19.3096C121.169 18.363 122.308 17.9844 123.828 17.9844C125.347 17.9844 126.486 18.363 127.436 19.3096C128.386 20.2562 128.765 21.2028 128.765 22.528C128.765 23.8533 128.386 24.9892 127.436 25.7464C126.486 26.693 125.347 27.0717 123.828 27.0717C122.308 27.0717 121.169 26.693 120.219 25.7464C119.269 24.7998 118.89 23.8533 118.89 22.528Z" fill="#0085E8"/>
<path d="M172.637 58.3099C170.928 60.2031 168.649 61.907 165.61 62.8536C162.571 63.9895 159.153 64.5574 155.544 64.5574C151.746 64.5574 148.327 63.8002 145.478 62.0963C142.63 60.3924 140.351 57.9313 138.831 54.7129C137.312 51.4945 136.362 47.7081 136.362 43.5431V40.514C136.362 36.1596 137.122 32.184 138.641 28.9655C140.161 25.7471 142.25 23.286 145.099 21.5821C147.947 19.8782 151.176 18.9316 154.974 18.9316C160.292 18.9316 164.47 20.2569 167.319 22.718C170.358 25.1792 172.067 28.7762 172.637 33.6985H163.711C163.331 31.2374 162.381 29.3442 161.052 28.2083C159.722 27.0723 157.823 26.5044 155.354 26.5044C152.316 26.5044 149.847 27.6403 148.137 30.1014C146.428 32.3733 145.668 35.9703 145.668 40.514V43.3538C145.668 48.0867 146.618 51.4945 148.327 53.9556C150.037 56.4167 152.695 57.5527 156.114 57.5527C159.533 57.5527 162.001 56.7954 163.521 55.2808V47.7081H155.164V40.8926H172.637V58.3099Z" fill="#283138"/>
<path d="M191.249 63.9899H182.133V19.5H191.249V63.9899Z" fill="#283138"/>
<path d="M227.714 45.8153H210.051V63.9899H200.935V19.5H229.993V26.8834H210.241V38.4319H227.904V45.8153H227.714Z" fill="#283138"/>
<path d="M270.636 27.0729H256.962V63.99H247.846V27.0729H234.361V19.6895H270.636V27.0729Z" fill="#283138"/>
<path d="M299.884 52.2519C299.884 50.548 299.314 49.2228 297.985 48.2762C296.845 47.3296 294.566 46.383 291.337 45.4364C288.109 44.4898 285.64 43.3539 283.741 42.4073C278.613 39.7568 276.144 35.9705 276.144 31.4268C276.144 28.9657 276.904 26.8832 278.233 24.99C279.562 23.0968 281.462 21.5822 284.121 20.6356C286.589 19.4997 289.438 19.1211 292.667 19.1211C295.896 19.1211 298.744 19.689 301.213 20.825C303.682 21.9609 305.581 23.6647 306.911 25.7472C308.24 27.8298 309 30.2909 309 32.9414H299.884C299.884 30.8589 299.314 29.3443 297.985 28.2084C296.655 27.0725 294.946 26.5045 292.477 26.5045C290.198 26.5045 288.489 27.0725 287.159 28.0191C285.83 28.9657 285.26 30.1016 285.26 31.8054C285.26 33.32 286.02 34.4559 287.349 35.4025C288.869 36.3491 290.958 37.2957 293.806 38.2423C299.124 39.7568 302.923 41.8393 305.202 44.1112C307.671 46.383 308.81 49.4121 308.81 52.8198C308.81 56.6062 307.291 59.6353 304.442 61.9071C301.593 63.9896 297.605 65.1255 292.667 65.1255C289.248 65.1255 286.21 64.5576 283.361 63.2324C280.512 61.9071 278.423 60.2033 276.904 58.1207C275.384 56.0382 274.625 53.3878 274.625 50.548H283.931C283.931 55.4703 286.779 57.9314 292.667 57.9314C294.756 57.9314 296.465 57.5528 297.795 56.6062C299.124 55.0916 299.884 53.9557 299.884 52.2519Z" fill="#283138"/>
<path d="M48.6195 65.5043C45.9606 59.6354 45.7707 57.9315 46.5304 51.4947C47.2901 45.0578 48.8094 38.9997 48.2397 32.3735C47.48 25.7473 43.4917 18.9319 37.984 15.1455C35.705 13.6309 32.2864 12.1164 29.4376 11.7378C33.236 9.0873 37.2243 6.62615 40.8328 6.0582C38.7437 5.1116 37.7941 5.30092 37.4142 4.92229C37.0344 4.73297 37.2243 3.59706 37.6042 2.46114C31.3368 4.54365 28.488 10.0339 24.6896 13.4416C29.4376 13.2523 33.0461 14.0096 37.0344 16.8494C42.1622 20.2571 45.7707 26.5046 46.3405 32.7521C47.1002 38.9996 45.3909 45.2472 44.6312 51.4947C43.8715 57.1742 43.8715 59.6354 46.1506 65.1256L33.6158 71.3731C30.767 66.0722 28.8678 64.5577 23.9299 61.5286C18.8021 58.4995 13.4843 56.0383 9.30608 51.684C4.93792 47.1404 2.65888 40.5142 3.22864 34.2667C3.98832 25.3687 9.68592 18.5532 17.0928 15.3348C20.8912 13.6309 26.7787 12.6844 28.2981 8.1407C29.4376 4.16501 27.1586 1.51455 24.4997 1.89319C21.271 2.46114 19.9416 5.30092 19.5618 8.1407C16.9029 2.08251 13.2944 0 10.4456 0C5.6976 0 2.65888 5.86888 7.5968 8.89798C7.78672 9.0873 8.16656 9.27662 8.5464 9.46593C5.88752 9.46593 3.22864 9.46593 0.75968 10.2232C1.70928 10.9805 2.46896 11.9271 2.46896 12.3057C2.27904 12.8737 1.32944 13.6309 0 15.7135C3.7984 13.8203 9.68592 13.2523 15.3835 13.063C16.3331 12.495 17.8525 12.1164 18.6122 11.9271C18.2323 11.3591 13.8642 10.2232 11.0154 8.33002C8.92624 6.81547 6.83712 3.21842 10.8254 3.40774C13.8642 3.59705 18.992 5.86888 19.3718 11.9271L20.7013 11.3591C21.271 3.97569 24.1198 3.40774 25.4493 4.92229C26.209 5.67956 26.3989 7.00479 26.019 7.95138C24.8795 10.7912 20.1315 11.9271 17.4726 12.8737C8.92624 16.0921 2.27904 23.8542 1.51936 33.5094C0.9496 40.5142 3.41856 47.7083 8.16656 52.6306C12.5347 57.1742 18.0424 59.6354 23.1702 62.8538C28.6779 66.2615 30.0074 67.3975 32.8562 73.4557L33.0461 73.8343L48.9994 65.6936L48.6195 65.5043Z" fill="#153A3E"/>
<path d="M49.569 67.0205L33.2358 75.5398L33.8056 76.6758L50.1387 68.1564L49.569 67.0205Z" fill="#013A43"/>
<path d="M34.1855 77.6209L34.7553 78.7568L51.0884 70.2375L50.5187 69.1016L34.1855 77.6209Z" fill="#013A43"/>
<path d="M37.4146 78.5677C39.1238 81.0288 42.7323 81.7861 45.771 80.0822C48.8098 78.5677 50.3291 75.16 49.5694 72.1309L37.4146 78.5677Z" fill="#013A43"/>
<path d="M15.9529 34.8337L13.6739 28.9648L11.3948 34.8337L5.31738 35.4017L10.0654 39.5667L8.54602 45.8142L13.8638 42.4065L19.1815 45.8142L17.6622 39.5667L22.4102 35.4017L15.9529 34.8337Z" fill="#DFC550"/>
<path d="M30.7673 46.1946L26.3991 48.2771L22.6007 45.248L23.1705 50.1703L19.3721 53.0101L24.1201 53.9567L25.4495 58.6897L27.7286 54.3353L32.4766 54.5247L29.2479 50.9276L30.7673 46.1946Z" fill="#8A3494"/>
<path d="M40.4525 44.1121L39.313 41.083L38.1735 44.1121L35.1348 44.3014L37.4138 46.3839L36.6541 49.413L39.313 47.7092L41.9719 49.413L41.2122 46.3839L43.4912 44.3014L40.4525 44.1121Z" fill="#E04097"/>
<path d="M30.7667 35.2125L30.007 33.3193L29.2473 35.2125L27.1582 35.4018L28.6776 36.7271L28.1078 38.8096L29.8171 37.6737L31.5264 38.8096L30.9566 36.7271L32.476 35.4018L30.7667 35.2125Z" fill="#B0E1EE"/>
<path d="M38.3636 59.8238L37.0341 56.416L35.7047 59.8238L32.0962 60.2024L34.7551 62.6635L33.9954 66.2606L37.0341 64.3674L40.0728 66.2606L39.1232 62.4742L41.7821 60.0131L38.3636 59.8238Z" fill="#C5DC75"/>
<path d="M34.3748 18.7416L30.5764 20.6348L27.1579 17.9844L27.7276 22.3387L24.3091 24.7998L28.4873 25.5571L29.6268 29.7221L31.716 25.9358L35.8942 26.1251L33.0454 22.9067L34.3748 18.7416Z" fill="#2EBCDD"/>
<path d="M40.4526 31.9934L39.503 29.5322L38.5534 31.9934L36.0845 32.1827L37.9837 33.8866L37.4139 36.537L39.503 35.2118L41.5922 36.537L41.0224 33.8866L42.9216 32.1827L40.4526 31.9934Z" fill="#71CAC8"/>
<path d="M18.6118 21.0129L17.0924 18.5518L16.7126 21.3915L14.0537 22.1488L16.5227 23.474V26.3138L18.4219 24.4206L21.0808 25.3672L19.7513 22.7168L21.4606 20.4449L18.6118 21.0129Z" fill="#D8A4C0"/>
</svg>
