<svg width="1920" height="470" viewBox="0 0 1920 470" fill="none" xmlns="http://www.w3.org/2000/svg">
<rect width="1919.75" height="453.917" transform="matrix(0.999995 -0.00326123 -0.00321523 -0.999995 1.58496 470)" fill="#F5F7FA"/>
<path d="M-4 34.2383C118.862 34.2383 181.445 38.3384 233.39 41.6325C277.329 44.4187 309.073 46.4319 380.559 46.4319C452.046 46.4319 483.783 44.4187 527.723 41.6325C579.668 38.3384 644.326 34.2383 765.119 34.2383C885.912 34.2383 950.55 38.3384 1002.5 41.6325C1046.43 44.4187 1078.18 46.4319 1149.65 46.4319C1221.13 46.4319 1252.86 44.4187 1296.8 41.6325C1348.73 38.3384 1413.39 34.2383 1534.18 34.2383C1654.97 34.2383 1721.76 38.3384 1773.7 41.6325C1817.64 44.4187 1851.87 46.4319 1923 46.4319V61.6738C1800.14 61.6738 1735.41 57.5737 1683.48 54.2796C1639.54 51.4934 1606.73 49.4803 1535.25 49.4803C1463.77 49.4803 1431.5 51.4934 1387.57 54.2796C1335.63 57.5737 1270.7 61.6738 1149.92 61.6738C1029.13 61.6738 964.35 57.5737 912.405 54.2796C868.472 51.4934 836.657 49.4803 765.177 49.4803C693.69 49.4803 661.921 51.4934 617.988 54.2796C566.043 57.5737 501.365 61.6738 380.572 61.6738C259.779 61.6738 195.115 57.5737 143.17 54.2796C99.2367 51.4934 67.1309 49.4803 -4 49.4803V34.2383Z" fill="white"/>
<path d="M-4 0.000501633C118.862 0.000501633 181.445 4.10059 233.39 7.39469C277.329 10.1809 309.073 12.1941 380.559 12.1941C452.046 12.1941 483.783 10.1809 527.723 7.39469C579.668 4.10059 644.326 0.000501633 765.119 0.000501633C885.912 0.000501633 950.55 4.10059 1002.5 7.39469C1046.43 10.1809 1078.18 12.1941 1149.65 12.1941C1221.13 12.1941 1252.86 10.1809 1296.8 7.39469C1348.73 4.10059 1413.39 0.000501633 1534.18 0.000501633C1654.97 0.000501633 1721.76 4.10059 1773.7 7.39469C1817.64 10.1809 1851.87 12.1941 1923 12.1941V27.436C1800.14 27.436 1735.41 23.3359 1683.48 20.0419C1639.54 17.2556 1606.73 15.2425 1535.25 15.2425C1463.77 15.2425 1431.5 17.2556 1387.57 20.0419C1335.63 23.3359 1270.7 27.436 1149.92 27.436C1029.13 27.436 964.35 23.3359 912.405 20.0419C868.472 17.2556 836.657 15.2425 765.177 15.2425C693.69 15.2425 661.921 17.2556 617.988 20.0419C566.043 23.3359 501.365 27.436 380.572 27.436C259.779 27.436 195.115 23.3359 143.17 20.0419C99.2367 17.2556 67.1309 15.2425 -4 15.2425V0.000501633Z" fill="white"/>
</svg>
