<?xml version="1.0" encoding="utf-8"?><!DOCTYPE svg PUBLIC "-//W3C//DTD SVG 1.1//EN" "http://www.w3.org/Graphics/SVG/1.1/DTD/svg11.dtd"><svg xmlns="http://www.w3.org/2000/svg" xmlns:xlink="http://www.w3.org/1999/xlink"><symbol fill="none" viewBox="0 0 14 13" id="area" xmlns="http://www.w3.org/2000/svg"><path d="M1.77.317A.979.979 0 0 0 1.037 0a.98.98 0 0 0-.733.317A1.068 1.068 0 0 0 0 1.083c0 .407.173.717.518.931V12.73c0 .074.026.137.077.19.052.054.113.081.183.081h.518c.07 0 .131-.027.183-.08a.266.266 0 0 0 .076-.19V2.013c.346-.214.519-.524.519-.93 0-.3-.101-.555-.304-.767zM13.846 1.244a.489.489 0 0 0-.365-.161c-.07 0-.217.06-.441.178s-.462.25-.713.398a5.02 5.02 0 0 1-.891.397 2.93 2.93 0 0 1-.952.178 1.52 1.52 0 0 1-.714-.16 14.065 14.065 0 0 0-1.774-.746 5.202 5.202 0 0 0-1.62-.245c-1 0-2.136.338-3.41 1.016a6.822 6.822 0 0 0-.641.363c-.167.13-.251.285-.251.466v6.28c0 .147.051.274.154.38.102.108.224.162.364.162a.552.552 0 0 0 .268-.076c1.469-.824 2.722-1.236 3.759-1.236.394 0 .779.062 1.154.186.376.124.688.26.936.406.249.147.542.282.88.407.337.123.67.186 1 .186.832 0 1.828-.328 2.99-.982.145-.08.252-.157.32-.233a.475.475 0 0 0 .1-.326V1.625a.532.532 0 0 0-.153-.381z" fill="#9AA2AD"/></symbol><symbol viewBox="0 0 8 12" id="arrow" xmlns="http://www.w3.org/2000/svg"><path d="M1.2 6.748l4.79 4.924a.765.765 0 0 0 1.104 0 .818.818 0 0 0 0-1.134L2.855 6.181l4.24-4.358a.818.818 0 0 0 0-1.134.765.765 0 0 0-1.104 0L1.2 5.614a.81.81 0 0 0-.23.567c0 .205.077.41.23.567z"/></symbol><symbol fill="none" viewBox="0 0 23 25" id="arrow-b" xmlns="http://www.w3.org/2000/svg"><path d="M19.98 24.276L22.994.931a.83.83 0 0 0-.727-.925.847.847 0 0 0-.548.12L.395 13.298a.823.823 0 0 0-.267 1.14.84.84 0 0 0 .687.389l11.638.334 5.986 9.45a.845.845 0 0 0 1.156.262.827.827 0 0 0 .386-.597z" fill="#2196F3"/></symbol><symbol fill="none" viewBox="0 0 7 4" id="arrow-p" xmlns="http://www.w3.org/2000/svg"><path d="M3.847.144l3.01 3.017a.492.492 0 0 1 0 .695.49.49 0 0 1-.694 0L3.5 1.186.837 3.856a.49.49 0 0 1-.693 0 .492.492 0 0 1 0-.695L3.154.144a.488.488 0 0 1 .693 0z" fill="#6E889B"/></symbol><symbol fill="none" viewBox="0 0 13 13" id="calendar" xmlns="http://www.w3.org/2000/svg"><path d="M11.917 1.219h-1.76V.406a.406.406 0 1 0-.813 0v.813H6.906V.406a.406.406 0 1 0-.812 0v.813H3.656V.406a.406.406 0 1 0-.812 0v.813h-1.76C.484 1.219 0 1.703 0 2.302v9.614C0 12.515.485 13 1.083 13h10.834c.598 0 1.083-.485 1.083-1.084V2.302c0-.599-.485-1.083-1.083-1.083zm.27 10.697c0 .15-.121.271-.27.271H1.083a.271.271 0 0 1-.27-.27V2.301c0-.15.121-.27.27-.27h1.76v.812a.406.406 0 1 0 .813 0V2.03h2.438v.813a.406.406 0 1 0 .812 0V2.03h2.438v.813a.406.406 0 1 0 .812 0V2.03h1.76c.15 0 .271.122.271.27v9.615z" fill="#859099"/><path d="M4.469 4.875H2.844v1.219h1.625V4.875zM4.469 6.906H2.844v1.219h1.625V6.906zM4.469 8.938H2.844v1.218h1.625V8.937zM7.313 8.938H5.688v1.218h1.625V8.937zM7.313 6.906H5.688v1.219h1.625V6.906zM7.313 4.875H5.688v1.219h1.625V4.875zM10.156 8.938H8.531v1.218h1.625V8.937zM10.156 6.906H8.531v1.219h1.625V6.906zM10.156 4.875H8.531v1.219h1.625V4.875z" fill="#859099"/></symbol><symbol fill="none" viewBox="0 0 23 20" id="cart" xmlns="http://www.w3.org/2000/svg"><path d="M8.483 12.542h11.582c.66 0 1.014-.718 1.199-1.364L23 2.932H5.548l1.737 8.246c.138.654.539 1.364 1.198 1.364zm9.753-2.105l1.198-5.719a.599.599 0 0 1 .71-.468c.324.07.53.393.462.72l-1.198 5.719a.601.601 0 0 1-.71.468.607.607 0 0 1-.462-.72zm-3.007.083l.4-5.719a.601.601 0 0 1 .64-.562c.33.023.578.314.555.648l-.4 5.719a.602.602 0 0 1-.64.563.605.605 0 0 1-.555-.65zm-3.04-6.282a.603.603 0 0 1 .64.563l.4 5.719a.605.605 0 0 1-.598.65.602.602 0 0 1-.597-.565l-.4-5.718a.605.605 0 0 1 .556-.649zm-3.876.012a.6.6 0 0 1 .71.468l1.199 5.719a.607.607 0 0 1-.587.733.602.602 0 0 1-.585-.481L7.852 4.971a.607.607 0 0 1 .461-.72zM9.241 15.85c-1.13 0-2.046.93-2.046 2.075s.916 2.074 2.046 2.074 2.046-.929 2.046-2.074c0-1.146-.916-2.074-2.046-2.074zm0 2.853a.772.772 0 0 1-.767-.778c0-.43.343-.778.767-.778s.767.348.767.778c0 .43-.343.777-.767.777zM18.96 15.85c-1.13 0-2.046.93-2.046 2.075s.916 2.074 2.047 2.074c1.13 0 2.046-.929 2.046-2.074 0-1.146-.916-2.074-2.046-2.074zm0 2.853a.772.772 0 0 1-.767-.778c0-.43.344-.778.768-.778.423 0 .767.348.767.778 0 .43-.344.777-.767.777z" fill="#A5ABB1"/><path d="M22.06 15.005H6.572a1.189 1.189 0 0 1-1.16-.934L2.515 1.406H.694A.699.699 0 0 1 0 .703C0 .315.31 0 .694 0H2.67a1.19 1.19 0 0 1 1.16.934l2.898 12.665h15.33c.384 0 .695.315.695.703 0 .389-.31.703-.694.703z" fill="#A5ABB1"/></symbol><symbol fill="none" viewBox="0 0 16 17" id="catalog" xmlns="http://www.w3.org/2000/svg"><path d="M2.074 16.96c1.146 0 2.074-.94 2.074-2.1 0-1.161-.928-2.102-2.074-2.102-1.145 0-2.074.94-2.074 2.101 0 1.16.929 2.101 2.074 2.101zM8 16.96c1.145 0 2.074-.94 2.074-2.1 0-1.161-.929-2.102-2.074-2.102-1.146 0-2.074.94-2.074 2.101 0 1.16.928 2.101 2.074 2.101zM13.926 16.96c1.145 0 2.074-.94 2.074-2.1 0-1.161-.929-2.102-2.074-2.102-1.146 0-2.074.94-2.074 2.101 0 1.16.928 2.101 2.074 2.101zM2.074 10.957c1.146 0 2.074-.941 2.074-2.102 0-1.16-.928-2.101-2.074-2.101C.93 6.754 0 7.694 0 8.855c0 1.16.929 2.102 2.074 2.102zM8 10.957c1.145 0 2.074-.941 2.074-2.102 0-1.16-.929-2.101-2.074-2.101-1.146 0-2.074.94-2.074 2.101 0 1.16.928 2.102 2.074 2.102zM13.926 10.957c1.145 0 2.074-.941 2.074-2.102 0-1.16-.929-2.101-2.074-2.101-1.146 0-2.074.94-2.074 2.101 0 1.16.928 2.102 2.074 2.102zM2.074 4.953c1.146 0 2.074-.941 2.074-2.102C4.148 1.691 3.22.75 2.074.75.93.75 0 1.69 0 2.851c0 1.16.929 2.102 2.074 2.102zM8 4.953c1.145 0 2.074-.941 2.074-2.102C10.074 1.691 9.145.75 8 .75c-1.146 0-2.074.94-2.074 2.101 0 1.16.928 2.102 2.074 2.102zM13.926 4.953C15.072 4.953 16 4.012 16 2.85 16 1.691 15.072.75 13.926.75c-1.145 0-2.074.94-2.074 2.101 0 1.16.929 2.102 2.074 2.102z" fill="#fff"/></symbol><symbol fill="none" viewBox="0 0 11 11" id="clock" xmlns="http://www.w3.org/2000/svg"><path d="M5.5 0a5.5 5.5 0 1 0 0 11 5.5 5.5 0 0 0 0-11zm2.378 6.546H5.546l-.023-.002-.023.002a.38.38 0 0 1-.38-.38V2.282a.38.38 0 0 1 .76 0v3.503h1.998a.38.38 0 0 1 0 .761z" fill="#fff"/></symbol><symbol fill="none" viewBox="0 0 6 6" id="close" xmlns="http://www.w3.org/2000/svg"><path d="M2.52 2.928L.24.592a.353.353 0 0 1 0-.49.333.333 0 0 1 .478 0L3 2.438 5.281.102a.333.333 0 0 1 .48 0 .353.353 0 0 1 0 .49L3.478 2.928l2.422 2.48a.353.353 0 0 1 0 .49.333.333 0 0 1-.48 0L3 3.418.578 5.899a.334.334 0 0 1-.479 0 .353.353 0 0 1 0-.49l2.422-2.48z" fill="#9AA2AD"/></symbol><symbol fill="none" viewBox="0 0 10 10" id="cross" xmlns="http://www.w3.org/2000/svg"><path d="M1.857 8.143L5 5l3.143-3.143M1.857 1.857L5 5l3.143 3.143" stroke="#fff" stroke-width="2" stroke-miterlimit="10" stroke-linecap="round"/></symbol><symbol fill="none" viewBox="0 0 30 30" id="decor-1" xmlns="http://www.w3.org/2000/svg"><path fill-rule="evenodd" clip-rule="evenodd" d="M10.53 13.23l-.88-7.974 6.221 5.064 7.277-3.256-2.838 7.475 5.376 5.962-7.974-.445-3.955 6.941-2.09-7.75-7.82-1.672 6.683-4.345z" fill="#2CD2DB"/></symbol><symbol fill="none" viewBox="0 0 26 25" id="decor-2" xmlns="http://www.w3.org/2000/svg"><path fill-rule="evenodd" clip-rule="evenodd" d="M16.11 11.419l.916-6.752-5.39 4.168-6.11-2.92 2.253 6.408-4.692 4.948 6.78-.209 3.211 5.977 1.939-6.535 6.675-1.255-5.582-3.83z" fill="#E24C9D"/></symbol><symbol fill="none" viewBox="0 0 26 26" id="decor-3" xmlns="http://www.w3.org/2000/svg"><path fill-rule="evenodd" clip-rule="evenodd" d="M13.193 9.227l6.475-2.12-3.126 6.053 3.975 5.482-6.709-1.058-4.02 5.508-1.019-6.706-6.458-2.078 6.078-3.088.028-6.792 4.776 4.799z" fill="#F3C028"/></symbol><symbol fill="none" viewBox="0 0 11 8" id="envelop" xmlns="http://www.w3.org/2000/svg"><path d="M1.056 2.466l1.258.81c.7.448 1.236.794 1.608 1.036l.261.174c.133.089.244.16.332.215.088.055.194.117.319.185.125.068.242.12.353.153.11.035.213.051.307.051h.012c.094 0 .197-.016.307-.05.11-.035.228-.086.353-.154a6.588 6.588 0 0 0 .65-.4l.262-.174L9.95 2.466c.3-.193.549-.426.75-.7.2-.272.3-.558.3-.857a.84.84 0 0 0-.292-.642.988.988 0 0 0-.69-.267H.982C.667 0 .425.098.255.295.085.492 0 .74 0 1.034c0 .239.113.497.338.776.225.278.464.497.718.656z" fill="#fff"/><path d="M10.386 3.074c-1.342.84-2.361 1.494-3.057 1.96-.233.16-.422.283-.568.372-.145.09-.338.18-.58.273-.241.093-.466.14-.675.14h-.012c-.209 0-.434-.047-.675-.14a3.62 3.62 0 0 1-.58-.273 14.593 14.593 0 0 1-.568-.372C3.118 4.66 2.1 4.006.62 3.074A3.196 3.196 0 0 1 0 2.58v4.51c0 .251.096.465.288.643A.985.985 0 0 0 .982 8h9.036c.27 0 .501-.089.693-.267A.844.844 0 0 0 11 7.09V2.58c-.176.182-.38.346-.614.494z" fill="#fff"/></symbol><symbol fill="none" viewBox="0 0 7 13" id="fb" xmlns="http://www.w3.org/2000/svg"><path d="M6.736.003L5.057 0C3.171 0 1.952 1.256 1.952 3.2v1.474H.264A.265.265 0 0 0 0 4.94v2.137c0 .146.118.265.264.265h1.688v5.393c0 .146.118.265.264.265H4.42a.265.265 0 0 0 .264-.265V7.342h1.974a.264.264 0 0 0 .264-.265V4.94a.266.266 0 0 0-.264-.266H4.683v-1.25c0-.601.142-.906.922-.906h1.131A.265.265 0 0 0 7 2.251V.268a.265.265 0 0 0-.264-.265z" fill="#405C95"/></symbol><symbol viewBox="0 0 247.46 247.46" id="filter" xmlns="http://www.w3.org/2000/svg"><path d="M246.744 13.984a7.5 7.5 0 0 0-6.784-4.301H7.5a7.501 7.501 0 0 0-5.787 12.271l89.361 108.384v99.94a7.5 7.5 0 0 0 10.83 6.72l50.208-24.885a7.499 7.499 0 0 0 4.169-6.71l.098-75.062 89.366-108.388a7.497 7.497 0 0 0 .999-7.969zM143.097 122.873a7.498 7.498 0 0 0-1.713 4.761l-.096 73.103-35.213 17.453v-90.546a7.496 7.496 0 0 0-1.713-4.771L23.404 24.682h200.651l-80.958 98.191z"/></symbol><symbol fill="none" viewBox="0 0 14 14" id="gift" xmlns="http://www.w3.org/2000/svg"><path d="M.438 3.719L7 7l6.563-3.281v7L7 14 .437 10.719v-7z" fill="#DB5449"/><path d="M.438 4.375V6.42l6.54 3.205 6.585-3.216V4.375L7 7.591.437 4.375z" fill="#C54B42"/><path d="M7 14V7L.875 3.937H.437v6.782L7 14z" fill="#D05045"/><path d="M.438 4.375V6.42l6.54 3.205.022-.01V7.58v.01L.437 4.376z" fill="#BB483E"/><path d="M0 3.49L7 0l7 3.49v.458l-7 3.49-7-3.479v-.47z" fill="#EB6258"/><path d="M11.014 1.105c-.23-.416-.722-.667-1.301-.667C8.389.438 7.459 1.673 7 2.46 6.54 1.673 5.6.448 4.288.448c-.843 0-1.444.515-1.444 1.215 0 1.246 1.367 2.056 4.112 2.056 2.746 0 4.2-1.04 4.2-2.046 0-.196-.043-.393-.142-.568zM4.572 2.45c-.306-.208-.416-.437-.416-.59 0-.187.175-.329.427-.329.59 0 1.06.777 1.323 1.313-.689-.055-1.093-.24-1.334-.394zm4.856 0c-.24.153-.645.34-1.334.394.251-.536.722-1.313 1.323-1.313.252 0 .427.142.427.328 0 .154-.11.383-.416.591z" fill="#EFEFEF"/><path d="M0 3.5l7 3.423L14 3.5v2.264L6.978 9.188 0 5.764V3.5z" fill="#E2574C"/><path d="M9.625 5.94v-.252L7 4.266 4.375 5.688v.251l-1.75-.765v-.35L6.912 2.56 7 2.603l.087-.043 4.288 2.253v.35l-1.75.776z" fill="#EFEFEF"/><path d="M9.625 5.688v6.989l1.75-.875v-6.99l-1.75.876z" fill="#DCDCDC"/><path d="M2.625 11.813l1.75.874V5.699l-1.75-.886v7z" fill="#D1D1D1"/></symbol><symbol fill="none" viewBox="0 0 10 10" id="info" xmlns="http://www.w3.org/2000/svg"><path d="M5 0a5 5 0 1 0 0 10A5 5 0 0 0 5 0zm1.04 7.749c-.257.102-.462.179-.615.232-.153.053-.332.08-.534.08-.312 0-.554-.076-.727-.228a.736.736 0 0 1-.259-.579c0-.09.007-.184.02-.279.012-.095.033-.201.061-.321l.323-1.138c.028-.109.052-.213.072-.31.02-.097.029-.186.029-.267 0-.145-.03-.247-.09-.304-.06-.057-.174-.085-.344-.085a.903.903 0 0 0-.256.038c-.087.027-.162.051-.224.075l.085-.35c.21-.087.413-.16.605-.221C4.38 4.03 4.561 4 4.732 4c.31 0 .548.075.716.224.168.15.252.344.252.582 0 .05-.006.137-.017.262a1.748 1.748 0 0 1-.065.343l-.32 1.134c-.026.091-.05.195-.07.312-.022.116-.032.205-.032.265 0 .15.034.253.101.308.067.054.184.082.35.082a1.507 1.507 0 0 0 .48-.113l-.086.35zm-.056-4.604a.765.765 0 0 1-.54.208.773.773 0 0 1-.542-.208.665.665 0 0 1-.225-.505c0-.197.076-.367.225-.507.151-.14.332-.21.542-.21.21 0 .39.07.54.21.15.14.224.31.224.507a.664.664 0 0 1-.224.505z" fill="#B4C2D6"/></symbol><symbol viewBox="0 0 12 16" id="location" xmlns="http://www.w3.org/2000/svg"><path d="M6 0C2.692 0 0 2.643 0 5.89c0 .848.177 1.657.525 2.405 1.5 3.223 4.376 6.625 5.222 7.591a.337.337 0 0 0 .506 0c.846-.966 3.722-4.368 5.222-7.59A5.656 5.656 0 0 0 12 5.89C12 2.643 9.308 0 6 0zm0 8.95c-1.719 0-3.117-1.372-3.117-3.06 0-1.687 1.398-3.06 3.117-3.06 1.718 0 3.116 1.373 3.116 3.06 0 1.688-1.398 3.06-3.116 3.06z"/></symbol><symbol fill="none" viewBox="0 0 14 12" id="metro" xmlns="http://www.w3.org/2000/svg"><path d="M11.552 0L7.078 6.692 2.51.156 0 11.099h3.396l.622-3.5L7.023 12l2.99-4.304.601 3.423H14L11.552 0z" fill="#9AA2AD"/></symbol><symbol fill="none" viewBox="0 0 7 1" id="minus" xmlns="http://www.w3.org/2000/svg"><rect x="7" width="1" height="7" rx=".5" transform="rotate(90 7 0)" fill="#6E889B"/></symbol><symbol fill="none" viewBox="0 0 24 24" id="pencil" xmlns="http://www.w3.org/2000/svg"><path d="M12 0C5.373 0 0 5.373 0 12s5.373 12 12 12 12-5.373 12-12S18.627 0 12 0zm5.704 8.636l-1.14 1.14-2.32-2.32-.88.88 2.32 2.32-5.69 5.69-2.32-2.32-.88.88 2.32 2.32-.568.567-.01-.01a.45.45 0 0 1-.287.205l-2.163.483a.446.446 0 0 1-.416-.121.449.449 0 0 1-.121-.416l.482-2.163a.45.45 0 0 1 .206-.287l-.01-.01 9.157-9.159a.344.344 0 0 1 .487 0l1.833 1.834a.344.344 0 0 1 0 .487z" fill="#0085E8"/></symbol><symbol fill="none" viewBox="0 0 11 11" id="phone" xmlns="http://www.w3.org/2000/svg"><path d="M10.753 8.7L9.055 6.998c-.339-.338-.9-.328-1.25.023l-.855.858-.169-.094c-.54-.3-1.28-.712-2.059-1.493-.78-.782-1.191-1.524-1.491-2.067l-.093-.165.575-.575.282-.283c.351-.352.36-.913.023-1.252L2.32.247C1.982-.09 1.421-.08 1.07.271L.592.753l.013.013c-.16.206-.295.442-.395.698-.092.243-.15.475-.175.707C-.19 4.035.66 5.738 2.966 8.05c3.188 3.195 5.757 2.953 5.868 2.942a2.87 2.87 0 0 0 1.401-.572l.01.009.486-.476c.35-.352.36-.913.022-1.253z" fill="#fff"/></symbol><symbol fill="none" viewBox="0 0 11 13" id="pinteres" xmlns="http://www.w3.org/2000/svg"><path d="M5.833 0C1.955 0 0 2.544 0 4.665 0 5.949.531 7.09 1.671 7.517c.187.07.355.003.41-.186.037-.132.126-.462.166-.6.054-.187.033-.253-.118-.416-.328-.355-.539-.814-.539-1.464 0-1.887 1.544-3.577 4.02-3.577 2.19 0 3.395 1.226 3.395 2.862 0 2.153-1.042 3.97-2.588 3.97-.854 0-1.492-.646-1.288-1.438.246-.946.72-1.967.72-2.65 0-.611-.358-1.121-1.1-1.121-.873 0-1.574.826-1.574 1.933 0 .705.26 1.181.26 1.181l-1.05 4.07c-.311 1.207-.046 2.687-.024 2.837.013.089.138.11.194.043.08-.097 1.12-1.27 1.474-2.444.1-.332.573-2.052.573-2.052.284.494 1.113.93 1.994.93C9.22 9.395 11 7.207 11 4.278 11 2.063 8.95 0 5.833 0z" fill="#DB3333"/></symbol><symbol fill="none" viewBox="0 0 7 7" id="plus" xmlns="http://www.w3.org/2000/svg"><rect x="3" width="1" height="7" rx=".5" fill="#6E889B"/><rect x="7" y="3" width="1" height="7" rx=".5" transform="rotate(90 7 3)" fill="#6E889B"/></symbol><symbol fill="none" viewBox="0 0 11 11" id="star" xmlns="http://www.w3.org/2000/svg"><path d="M6.031.345l1.24 2.629c.087.183.254.31.447.339l2.774.421c.486.074.68.699.328 1.057L8.813 6.837a.637.637 0 0 0-.17.548l.474 2.89c.083.505-.425.891-.86.652L5.776 9.563a.57.57 0 0 0-.552 0l-2.481 1.364c-.435.24-.943-.147-.86-.653l.474-2.889a.637.637 0 0 0-.17-.548L.18 4.79c-.352-.359-.158-.983.328-1.057l2.774-.421a.595.595 0 0 0 .446-.339L4.968.345a.581.581 0 0 1 1.063 0z" fill="#F3C028"/></symbol><symbol fill="none" viewBox="0 0 14 12" id="twitter" xmlns="http://www.w3.org/2000/svg"><path d="M14 1.42a5.504 5.504 0 0 1-1.65.477A3.02 3.02 0 0 0 13.614.222a5.61 5.61 0 0 1-1.825.735A2.796 2.796 0 0 0 9.692 0C8.106 0 6.82 1.357 6.82 3.03c0 .237.026.469.075.69C4.508 3.594 2.392 2.387.975.554a3.136 3.136 0 0 0-.388 1.523c0 1.052.507 1.98 1.277 2.522a2.759 2.759 0 0 1-1.3-.38v.038c0 1.467.99 2.692 2.303 2.971-.24.069-.494.106-.757.106-.185 0-.365-.019-.54-.056.365 1.205 1.425 2.08 2.682 2.105A5.574 5.574 0 0 1 0 10.637 7.813 7.813 0 0 0 4.402 12c5.283 0 8.171-4.618 8.171-8.622l-.01-.393A5.919 5.919 0 0 0 14 1.42z" fill="#3DCCFC"/></symbol><symbol fill="none" viewBox="0 0 77 6" id="wave" xmlns="http://www.w3.org/2000/svg"><path d="M2.527 4.072l1.865 1.031c2.16 1.196 4.54 1.195 6.7 0l1.864-1.03c1.6-.887 3.364-.887 4.965 0l1.864 1.03c2.16 1.195 4.539 1.196 6.7 0l1.862-1.03c1.601-.888 3.365-.887 4.966 0l1.863 1.03c2.16 1.195 4.54 1.196 6.7 0l1.862-1.03c1.6-.887 3.364-.886 4.966 0l1.862 1.03c2.16 1.195 4.54 1.195 6.7 0l1.861-1.03c1.6-.886 3.364-.887 4.966 0l1.862 1.03c2.16 1.195 4.54 1.195 6.7 0l1.862-1.03A5.1 5.1 0 0 1 77 3.407V0c-1.135 0-2.27.3-3.35.897l-1.863 1.03c-1.6.886-3.364.887-4.965 0L64.96.897c-2.161-1.196-4.541-1.195-6.702 0l-1.86 1.03c-1.601.886-3.365.886-4.966 0L49.57.897C47.41-.298 45.03-.3 42.869.897l-1.861 1.03c-1.601.887-3.364.887-4.966 0L34.179.897c-2.16-1.195-4.54-1.196-6.7 0l-1.863 1.03c-1.601.887-3.365.887-4.966 0L18.787.897c-2.16-1.196-4.54-1.196-6.7 0l-1.864 1.03c-1.6.886-3.364.887-4.965 0L3.393.898C2.313.298 1.178 0 .043 0L0 .001v3.41a5.092 5.092 0 0 1 2.527.66z" fill="#2CD2DB"/></symbol></svg>