<svg width="59" height="46" viewBox="0 0 59 46" fill="none" xmlns="http://www.w3.org/2000/svg">
<path fill-rule="evenodd" clip-rule="evenodd" d="M48.6343 30.2222L49.4995 22.2468L43.3775 27.3121L36.2167 24.055L39.0102 31.5318L33.719 37.4946L41.5668 37.0499L45.4583 43.9919L47.5151 36.2406L55.211 34.5677L48.6343 30.2222Z" fill="#2CD2DB"/>
<path fill-rule="evenodd" clip-rule="evenodd" d="M10.3618 16.6304L9.49659 8.655L15.6186 13.7203L22.7794 10.4632L19.9859 17.94L25.2771 23.9028L17.4293 23.4581L13.5378 30.4001L11.481 22.6488L3.78505 20.9759L10.3618 16.6304Z" fill="#F2C94C"/>
<path fill-rule="evenodd" clip-rule="evenodd" d="M37.9234 6.45994L38.3458 2.5663L35.357 5.03921L31.861 3.44907L33.2248 7.09931L30.6416 10.0104L34.473 9.79327L36.3728 13.1824L37.377 9.3982L41.1342 8.58146L37.9234 6.45994Z" fill="#E04097"/>
</svg>
